<?xml version="1.0" standalone="no"?>
<!DOCTYPE svg PUBLIC "-//W3C//DTD SVG 20010904//EN"
 "http://www.w3.org/TR/2001/REC-SVG-20010904/DTD/svg10.dtd">
<svg version="1.0" xmlns="http://www.w3.org/2000/svg"
 width="500.000000pt" height="500.000000pt" viewBox="0 0 500.000000 500.000000"
 preserveAspectRatio="xMidYMid meet">
<metadata>
Created by potrace 1.14, written by Peter Selinger 2001-2017
</metadata>
<g transform="translate(0.000000,500.000000) scale(0.100000,-0.100000)"
fill="#000000" stroke="none">
<path d="M1530 3861 c-76 -25 -162 -73 -212 -118 -10 -9 -18 -13 -18 -10 0 3
-11 -5 -25 -19 -14 -14 -25 -27 -25 -31 0 -3 -18 -27 -40 -53 -38 -45 -87
-140 -96 -185 -2 -11 -7 -38 -12 -60 -10 -55 -9 -1745 1 -1820 8 -59 44 -157
59 -163 4 -2 8 -10 8 -18 0 -8 5 -14 10 -14 6 0 10 -4 10 -10 0 -22 85 -115
149 -164 79 -60 162 -97 256 -112 48 -8 1721 -9 1784 -1 63 8 171 38 171 48 0
5 4 8 8 6 16 -4 112 64 106 75 -4 6 -2 8 3 5 30 -18 197 202 204 268 0 2 5 19
10 37 19 68 21 155 21 953 0 887 -1 931 -35 1009 -9 21 -17 41 -17 43 0 9 -75
119 -92 134 -10 9 -18 20 -18 24 0 10 -43 55 -54 55 -4 0 -25 13 -45 29 -56
44 -138 82 -232 108 -13 4 -422 8 -909 9 l-885 3 -85 -28z"/>
</g>
</svg>
