<svg width="1440" height="2048" viewBox="0 0 1440 2048" fill="none" xmlns="http://www.w3.org/2000/svg">
<rect width="16" height="16" rx="2" transform="matrix(-1 0 0 1 1424 16)" fill="#66E185" fill-opacity="0.24"/>
<rect width="16" height="16" rx="2" transform="matrix(-1 0 0 1 1424 272)" fill="#66E185" fill-opacity="0.24"/>
<rect width="16" height="16" rx="2" transform="matrix(-1 0 0 1 1392 528)" fill="#66E185" fill-opacity="0.24"/>
<rect width="16" height="16" rx="2" transform="matrix(-1 0 0 1 1392 784)" fill="#66E185" fill-opacity="0.24"/>
<rect width="16" height="16" rx="2" transform="matrix(-1 0 0 1 1424 144)" fill="#66E185" fill-opacity="0.24"/>
<rect width="16" height="16" rx="2" transform="matrix(-1 0 0 1 1424 400)" fill="#66E185" fill-opacity="0.24"/>
<rect width="16" height="16" rx="2" transform="matrix(-1 0 0 1 1392 656)" fill="#66E185" fill-opacity="0.24"/>
<rect width="16" height="16" rx="2" transform="matrix(-1 0 0 1 1392 912)" fill="#66E185" fill-opacity="0.24"/>
<rect width="16" height="16" rx="2" transform="matrix(-1 0 0 1 1424 80)" fill="#66E185" fill-opacity="0.24"/>
<rect width="16" height="16" rx="2" transform="matrix(-1 0 0 1 1424 336)" fill="#66E185" fill-opacity="0.24"/>
<rect width="16" height="16" rx="2" transform="matrix(-1 0 0 1 1392 592)" fill="#66E185" fill-opacity="0.24"/>
<rect width="16" height="16" rx="2" transform="matrix(-1 0 0 1 1392 848)" fill="#66E185" fill-opacity="0.24"/>
<rect width="16" height="16" rx="2" transform="matrix(-1 0 0 1 1424 208)" fill="#66E185" fill-opacity="0.24"/>
<rect width="16" height="16" rx="2" transform="matrix(-1 0 0 1 1424 464)" fill="#66E185" fill-opacity="0.24"/>
<rect width="16" height="16" rx="2" transform="matrix(-1 0 0 1 1392 720)" fill="#66E185" fill-opacity="0.24"/>
<rect width="16" height="16" rx="2" transform="matrix(-1 0 0 1 1392 976)" fill="#66E185" fill-opacity="0.24"/>
<rect width="16" height="16" rx="2" transform="matrix(-1 0 0 1 1392 16)" fill="#66E185" fill-opacity="0.24"/>
<rect width="16" height="16" rx="2" transform="matrix(-1 0 0 1 1392 272)" fill="#66E185" fill-opacity="0.24"/>
<rect width="16" height="16" rx="2" transform="matrix(-1 0 0 1 1360 528)" fill="#66E185" fill-opacity="0.24"/>
<rect width="16" height="16" rx="2" transform="matrix(-1 0 0 1 1360 784)" fill="#66E185" fill-opacity="0.24"/>
<rect width="16" height="16" rx="2" transform="matrix(-1 0 0 1 1392 144)" fill="#66E185" fill-opacity="0.24"/>
<rect width="16" height="16" rx="2" transform="matrix(-1 0 0 1 1392 400)" fill="#66E185" fill-opacity="0.24"/>
<rect width="16" height="16" rx="2" transform="matrix(-1 0 0 1 1360 656)" fill="#66E185" fill-opacity="0.24"/>
<rect width="16" height="16" rx="2" transform="matrix(-1 0 0 1 1360 912)" fill="#66E185" fill-opacity="0.24"/>
<rect width="16" height="16" rx="2" transform="matrix(-1 0 0 1 1392 80)" fill="#66E185" fill-opacity="0.24"/>
<rect width="16" height="16" rx="2" transform="matrix(-1 0 0 1 1392 336)" fill="#66E185" fill-opacity="0.24"/>
<rect width="16" height="16" rx="2" transform="matrix(-1 0 0 1 1360 592)" fill="#66E185" fill-opacity="0.24"/>
<rect width="16" height="16" rx="2" transform="matrix(-1 0 0 1 1360 848)" fill="#66E185" fill-opacity="0.24"/>
<rect width="16" height="16" rx="2" transform="matrix(-1 0 0 1 1392 208)" fill="#66E185" fill-opacity="0.24"/>
<rect width="16" height="16" rx="2" transform="matrix(-1 0 0 1 1392 464)" fill="#66E185" fill-opacity="0.24"/>
<rect width="16" height="16" rx="2" transform="matrix(-1 0 0 1 1360 720)" fill="#66E185" fill-opacity="0.24"/>
<rect width="16" height="16" rx="2" transform="matrix(-1 0 0 1 1360 976)" fill="#66E185" fill-opacity="0.24"/>
<rect width="16" height="16" rx="2" transform="matrix(-1 0 0 1 1360 16)" fill="#66E185" fill-opacity="0.24"/>
<rect width="16" height="16" rx="2" transform="matrix(-1 0 0 1 1360 272)" fill="#66E185" fill-opacity="0.24"/>
<rect width="16" height="16" rx="2" transform="matrix(-1 0 0 1 1328 528)" fill="#66E185" fill-opacity="0.24"/>
<rect width="16" height="16" rx="2" transform="matrix(-1 0 0 1 1328 784)" fill="#66E185" fill-opacity="0.24"/>
<rect width="16" height="16" rx="2" transform="matrix(-1 0 0 1 1360 144)" fill="#66E185" fill-opacity="0.24"/>
<rect width="16" height="16" rx="2" transform="matrix(-1 0 0 1 1360 400)" fill="#66E185" fill-opacity="0.24"/>
<rect width="16" height="16" rx="2" transform="matrix(-1 0 0 1 1328 656)" fill="#66E185" fill-opacity="0.24"/>
<rect width="16" height="16" rx="2" transform="matrix(-1 0 0 1 1328 912)" fill="#66E185" fill-opacity="0.24"/>
<rect width="16" height="16" rx="2" transform="matrix(-1 0 0 1 1360 80)" fill="#66E185" fill-opacity="0.24"/>
<rect width="16" height="16" rx="2" transform="matrix(-1 0 0 1 1360 336)" fill="#66E185" fill-opacity="0.24"/>
<rect width="16" height="16" rx="2" transform="matrix(-1 0 0 1 1328 592)" fill="#66E185" fill-opacity="0.24"/>
<rect width="16" height="16" rx="2" transform="matrix(-1 0 0 1 1328 848)" fill="#66E185" fill-opacity="0.24"/>
<rect width="16" height="16" rx="2" transform="matrix(-1 0 0 1 1360 208)" fill="#66E185" fill-opacity="0.24"/>
<rect width="16" height="16" rx="2" transform="matrix(-1 0 0 1 1360 464)" fill="#66E185" fill-opacity="0.24"/>
<rect width="16" height="16" rx="2" transform="matrix(-1 0 0 1 1328 720)" fill="#66E185" fill-opacity="0.24"/>
<rect width="16" height="16" rx="2" transform="matrix(-1 0 0 1 1328 976)" fill="#66E185" fill-opacity="0.24"/>
<rect width="16" height="16" rx="2" transform="matrix(-1 0 0 1 1328 16)" fill="#66E185" fill-opacity="0.24"/>
<rect width="16" height="16" rx="2" transform="matrix(-1 0 0 1 1328 272)" fill="#66E185" fill-opacity="0.24"/>
<rect width="16" height="16" rx="2" transform="matrix(-1 0 0 1 128 1552)" fill="#66E185" fill-opacity="0.24"/>
<rect width="16" height="16" rx="2" transform="matrix(-1 0 0 1 128 1808)" fill="#66E185" fill-opacity="0.24"/>
<rect width="16" height="16" rx="2" transform="matrix(-1 0 0 1 1328 144)" fill="#66E185" fill-opacity="0.24"/>
<rect width="16" height="16" rx="2" transform="matrix(-1 0 0 1 1328 400)" fill="#66E185" fill-opacity="0.24"/>
<rect width="16" height="16" rx="2" transform="matrix(-1 0 0 1 128 1680)" fill="#66E185" fill-opacity="0.24"/>
<rect width="16" height="16" rx="2" transform="matrix(-1 0 0 1 128 1936)" fill="#66E185" fill-opacity="0.24"/>
<rect width="16" height="16" rx="2" transform="matrix(-1 0 0 1 1328 80)" fill="#66E185" fill-opacity="0.24"/>
<rect width="16" height="16" rx="2" transform="matrix(-1 0 0 1 1328 336)" fill="#66E185" fill-opacity="0.24"/>
<rect width="16" height="16" rx="2" transform="matrix(-1 0 0 1 128 1616)" fill="#66E185" fill-opacity="0.24"/>
<rect width="16" height="16" rx="2" transform="matrix(-1 0 0 1 128 1872)" fill="#66E185" fill-opacity="0.24"/>
<rect width="16" height="16" rx="2" transform="matrix(-1 0 0 1 1328 208)" fill="#66E185" fill-opacity="0.24"/>
<rect width="16" height="16" rx="2" transform="matrix(-1 0 0 1 1328 464)" fill="#66E185" fill-opacity="0.24"/>
<rect width="16" height="16" rx="2" transform="matrix(-1 0 0 1 128 1744)" fill="#66E185" fill-opacity="0.24"/>
<rect width="16" height="16" rx="2" transform="matrix(-1 0 0 1 128 2000)" fill="#66E185" fill-opacity="0.24"/>
<rect width="16" height="16" rx="2" transform="matrix(-1 0 0 1 128 1040)" fill="#66E185" fill-opacity="0.24"/>
<rect width="16" height="16" rx="2" transform="matrix(-1 0 0 1 128 1296)" fill="#66E185" fill-opacity="0.24"/>
<rect width="16" height="16" rx="2" transform="matrix(-1 0 0 1 96 1552)" fill="#66E185" fill-opacity="0.24"/>
<rect width="16" height="16" rx="2" transform="matrix(-1 0 0 1 96 1808)" fill="#66E185" fill-opacity="0.24"/>
<rect width="16" height="16" rx="2" transform="matrix(-1 0 0 1 128 1168)" fill="#66E185" fill-opacity="0.24"/>
<rect width="16" height="16" rx="2" transform="matrix(-1 0 0 1 128 1424)" fill="#66E185" fill-opacity="0.24"/>
<rect width="16" height="16" rx="2" transform="matrix(-1 0 0 1 96 1680)" fill="#66E185" fill-opacity="0.24"/>
<rect width="16" height="16" rx="2" transform="matrix(-1 0 0 1 96 1936)" fill="#66E185" fill-opacity="0.24"/>
<rect width="16" height="16" rx="2" transform="matrix(-1 0 0 1 128 1104)" fill="#66E185" fill-opacity="0.24"/>
<rect width="16" height="16" rx="2" transform="matrix(-1 0 0 1 128 1360)" fill="#66E185" fill-opacity="0.24"/>
<rect width="16" height="16" rx="2" transform="matrix(-1 0 0 1 96 1616)" fill="#66E185" fill-opacity="0.24"/>
<rect width="16" height="16" rx="2" transform="matrix(-1 0 0 1 96 1872)" fill="#66E185" fill-opacity="0.24"/>
<rect width="16" height="16" rx="2" transform="matrix(-1 0 0 1 128 1232)" fill="#66E185" fill-opacity="0.24"/>
<rect width="16" height="16" rx="2" transform="matrix(-1 0 0 1 128 1488)" fill="#66E185" fill-opacity="0.24"/>
<rect width="16" height="16" rx="2" transform="matrix(-1 0 0 1 96 1744)" fill="#66E185" fill-opacity="0.24"/>
<rect width="16" height="16" rx="2" transform="matrix(-1 0 0 1 96 2000)" fill="#66E185" fill-opacity="0.24"/>
<rect width="16" height="16" rx="2" transform="matrix(-1 0 0 1 96 1040)" fill="#66E185" fill-opacity="0.24"/>
<rect width="16" height="16" rx="2" transform="matrix(-1 0 0 1 96 1296)" fill="#66E185" fill-opacity="0.24"/>
<rect width="16" height="16" rx="2" transform="matrix(-1 0 0 1 64 1552)" fill="#66E185" fill-opacity="0.24"/>
<rect width="16" height="16" rx="2" transform="matrix(-1 0 0 1 64 1808)" fill="#66E185" fill-opacity="0.24"/>
<rect width="16" height="16" rx="2" transform="matrix(-1 0 0 1 96 1168)" fill="#66E185" fill-opacity="0.24"/>
<rect width="16" height="16" rx="2" transform="matrix(-1 0 0 1 96 1424)" fill="#66E185" fill-opacity="0.24"/>
<rect width="16" height="16" rx="2" transform="matrix(-1 0 0 1 64 1680)" fill="#66E185" fill-opacity="0.24"/>
<rect width="16" height="16" rx="2" transform="matrix(-1 0 0 1 64 1936)" fill="#66E185" fill-opacity="0.24"/>
<rect width="16" height="16" rx="2" transform="matrix(-1 0 0 1 96 1104)" fill="#66E185" fill-opacity="0.24"/>
<rect width="16" height="16" rx="2" transform="matrix(-1 0 0 1 96 1360)" fill="#66E185" fill-opacity="0.24"/>
<rect width="16" height="16" rx="2" transform="matrix(-1 0 0 1 64 1616)" fill="#66E185" fill-opacity="0.24"/>
<rect width="16" height="16" rx="2" transform="matrix(-1 0 0 1 64 1872)" fill="#66E185" fill-opacity="0.24"/>
<rect width="16" height="16" rx="2" transform="matrix(-1 0 0 1 96 1232)" fill="#66E185" fill-opacity="0.24"/>
<rect width="16" height="16" rx="2" transform="matrix(-1 0 0 1 96 1488)" fill="#66E185" fill-opacity="0.24"/>
<rect width="16" height="16" rx="2" transform="matrix(-1 0 0 1 64 1744)" fill="#66E185" fill-opacity="0.24"/>
<rect width="16" height="16" rx="2" transform="matrix(-1 0 0 1 64 2000)" fill="#66E185" fill-opacity="0.24"/>
<rect width="16" height="16" rx="2" transform="matrix(-1 0 0 1 64 1040)" fill="#66E185" fill-opacity="0.24"/>
<rect width="16" height="16" rx="2" transform="matrix(-1 0 0 1 64 1296)" fill="#66E185" fill-opacity="0.24"/>
<rect width="16" height="16" rx="2" transform="matrix(-1 0 0 1 32 1552)" fill="#66E185" fill-opacity="0.24"/>
<rect width="16" height="16" rx="2" transform="matrix(-1 0 0 1 32 1808)" fill="#66E185" fill-opacity="0.24"/>
<rect width="16" height="16" rx="2" transform="matrix(-1 0 0 1 64 1168)" fill="#66E185" fill-opacity="0.24"/>
<rect width="16" height="16" rx="2" transform="matrix(-1 0 0 1 64 1424)" fill="#66E185" fill-opacity="0.24"/>
<rect width="16" height="16" rx="2" transform="matrix(-1 0 0 1 32 1680)" fill="#66E185" fill-opacity="0.24"/>
<rect width="16" height="16" rx="2" transform="matrix(-1 0 0 1 32 1936)" fill="#66E185" fill-opacity="0.24"/>
<rect width="16" height="16" rx="2" transform="matrix(-1 0 0 1 64 1104)" fill="#66E185" fill-opacity="0.24"/>
<rect width="16" height="16" rx="2" transform="matrix(-1 0 0 1 64 1360)" fill="#66E185" fill-opacity="0.24"/>
<rect width="16" height="16" rx="2" transform="matrix(-1 0 0 1 32 1616)" fill="#66E185" fill-opacity="0.24"/>
<rect width="16" height="16" rx="2" transform="matrix(-1 0 0 1 32 1872)" fill="#66E185" fill-opacity="0.24"/>
<rect width="16" height="16" rx="2" transform="matrix(-1 0 0 1 64 1232)" fill="#66E185" fill-opacity="0.24"/>
<rect width="16" height="16" rx="2" transform="matrix(-1 0 0 1 64 1488)" fill="#66E185" fill-opacity="0.24"/>
<rect width="16" height="16" rx="2" transform="matrix(-1 0 0 1 32 1744)" fill="#66E185" fill-opacity="0.24"/>
<rect width="16" height="16" rx="2" transform="matrix(-1 0 0 1 32 2000)" fill="#66E185" fill-opacity="0.24"/>
<rect width="16" height="16" rx="2" transform="matrix(-1 0 0 1 1424 528)" fill="#66E185" fill-opacity="0.24"/>
<rect width="16" height="16" rx="2" transform="matrix(-1 0 0 1 1424 784)" fill="#66E185" fill-opacity="0.24"/>
<rect width="16" height="16" rx="2" transform="matrix(-1 0 0 1 32 1040)" fill="#66E185" fill-opacity="0.24"/>
<rect width="16" height="16" rx="2" transform="matrix(-1 0 0 1 32 1296)" fill="#66E185" fill-opacity="0.24"/>
<rect width="16" height="16" rx="2" transform="matrix(-1 0 0 1 1424 656)" fill="#66E185" fill-opacity="0.24"/>
<rect width="16" height="16" rx="2" transform="matrix(-1 0 0 1 1424 912)" fill="#66E185" fill-opacity="0.24"/>
<rect width="16" height="16" rx="2" transform="matrix(-1 0 0 1 32 1168)" fill="#66E185" fill-opacity="0.24"/>
<rect width="16" height="16" rx="2" transform="matrix(-1 0 0 1 32 1424)" fill="#66E185" fill-opacity="0.24"/>
<rect width="16" height="16" rx="2" transform="matrix(-1 0 0 1 1424 592)" fill="#66E185" fill-opacity="0.24"/>
<rect width="16" height="16" rx="2" transform="matrix(-1 0 0 1 1424 848)" fill="#66E185" fill-opacity="0.24"/>
<rect width="16" height="16" rx="2" transform="matrix(-1 0 0 1 32 1104)" fill="#66E185" fill-opacity="0.24"/>
<rect width="16" height="16" rx="2" transform="matrix(-1 0 0 1 32 1360)" fill="#66E185" fill-opacity="0.24"/>
<rect width="16" height="16" rx="2" transform="matrix(-1 0 0 1 1424 720)" fill="#66E185" fill-opacity="0.24"/>
<rect width="16" height="16" rx="2" transform="matrix(-1 0 0 1 1424 976)" fill="#66E185" fill-opacity="0.24"/>
<rect width="16" height="16" rx="2" transform="matrix(-1 0 0 1 32 1232)" fill="#66E185" fill-opacity="0.24"/>
<rect width="16" height="16" rx="2" transform="matrix(-1 0 0 1 32 1488)" fill="#66E185" fill-opacity="0.24"/>
<rect width="16" height="16" rx="2" transform="matrix(-1 0 0 1 1424 48)" fill="#66E185" fill-opacity="0.24"/>
<rect width="16" height="16" rx="2" transform="matrix(-1 0 0 1 1424 304)" fill="#66E185" fill-opacity="0.24"/>
<rect width="16" height="16" rx="2" transform="matrix(-1 0 0 1 1392 560)" fill="#66E185" fill-opacity="0.24"/>
<rect width="16" height="16" rx="2" transform="matrix(-1 0 0 1 1392 816)" fill="#66E185" fill-opacity="0.24"/>
<rect width="16" height="16" rx="2" transform="matrix(-1 0 0 1 1424 176)" fill="#66E185" fill-opacity="0.24"/>
<rect width="16" height="16" rx="2" transform="matrix(-1 0 0 1 1424 432)" fill="#66E185" fill-opacity="0.24"/>
<rect width="16" height="16" rx="2" transform="matrix(-1 0 0 1 1392 688)" fill="#66E185" fill-opacity="0.24"/>
<rect width="16" height="16" rx="2" transform="matrix(-1 0 0 1 1392 944)" fill="#66E185" fill-opacity="0.24"/>
<rect width="16" height="16" rx="2" transform="matrix(-1 0 0 1 1424 112)" fill="#66E185" fill-opacity="0.24"/>
<rect width="16" height="16" rx="2" transform="matrix(-1 0 0 1 1424 368)" fill="#66E185" fill-opacity="0.24"/>
<rect width="16" height="16" rx="2" transform="matrix(-1 0 0 1 1392 624)" fill="#66E185" fill-opacity="0.24"/>
<rect width="16" height="16" rx="2" transform="matrix(-1 0 0 1 1392 880)" fill="#66E185" fill-opacity="0.24"/>
<rect width="16" height="16" rx="2" transform="matrix(-1 0 0 1 1424 240)" fill="#66E185" fill-opacity="0.24"/>
<rect width="16" height="16" rx="2" transform="matrix(-1 0 0 1 1424 496)" fill="#66E185" fill-opacity="0.24"/>
<rect width="16" height="16" rx="2" transform="matrix(-1 0 0 1 1392 752)" fill="#66E185" fill-opacity="0.24"/>
<rect width="16" height="16" rx="2" transform="matrix(-1 0 0 1 1392 1008)" fill="#66E185" fill-opacity="0.24"/>
<rect width="16" height="16" rx="2" transform="matrix(-1 0 0 1 1392 48)" fill="#66E185" fill-opacity="0.24"/>
<rect width="16" height="16" rx="2" transform="matrix(-1 0 0 1 1392 304)" fill="#66E185" fill-opacity="0.24"/>
<rect width="16" height="16" rx="2" transform="matrix(-1 0 0 1 1360 560)" fill="#66E185" fill-opacity="0.24"/>
<rect width="16" height="16" rx="2" transform="matrix(-1 0 0 1 1360 816)" fill="#66E185" fill-opacity="0.24"/>
<rect width="16" height="16" rx="2" transform="matrix(-1 0 0 1 1392 176)" fill="#66E185" fill-opacity="0.24"/>
<rect width="16" height="16" rx="2" transform="matrix(-1 0 0 1 1392 432)" fill="#66E185" fill-opacity="0.24"/>
<rect width="16" height="16" rx="2" transform="matrix(-1 0 0 1 1360 688)" fill="#66E185" fill-opacity="0.24"/>
<rect width="16" height="16" rx="2" transform="matrix(-1 0 0 1 1360 944)" fill="#66E185" fill-opacity="0.24"/>
<rect width="16" height="16" rx="2" transform="matrix(-1 0 0 1 1392 112)" fill="#66E185" fill-opacity="0.24"/>
<rect width="16" height="16" rx="2" transform="matrix(-1 0 0 1 1392 368)" fill="#66E185" fill-opacity="0.24"/>
<rect width="16" height="16" rx="2" transform="matrix(-1 0 0 1 1360 624)" fill="#66E185" fill-opacity="0.24"/>
<rect width="16" height="16" rx="2" transform="matrix(-1 0 0 1 1360 880)" fill="#66E185" fill-opacity="0.24"/>
<rect width="16" height="16" rx="2" transform="matrix(-1 0 0 1 1392 240)" fill="#66E185" fill-opacity="0.24"/>
<rect width="16" height="16" rx="2" transform="matrix(-1 0 0 1 1392 496)" fill="#66E185" fill-opacity="0.24"/>
<rect width="16" height="16" rx="2" transform="matrix(-1 0 0 1 1360 752)" fill="#66E185" fill-opacity="0.24"/>
<rect width="16" height="16" rx="2" transform="matrix(-1 0 0 1 1360 1008)" fill="#66E185" fill-opacity="0.24"/>
<rect width="16" height="16" rx="2" transform="matrix(-1 0 0 1 1360 48)" fill="#66E185" fill-opacity="0.24"/>
<rect width="16" height="16" rx="2" transform="matrix(-1 0 0 1 1360 304)" fill="#66E185" fill-opacity="0.24"/>
<rect width="16" height="16" rx="2" transform="matrix(-1 0 0 1 1328 560)" fill="#66E185" fill-opacity="0.24"/>
<rect width="16" height="16" rx="2" transform="matrix(-1 0 0 1 1328 816)" fill="#66E185" fill-opacity="0.24"/>
<rect width="16" height="16" rx="2" transform="matrix(-1 0 0 1 1360 176)" fill="#66E185" fill-opacity="0.24"/>
<rect width="16" height="16" rx="2" transform="matrix(-1 0 0 1 1360 432)" fill="#66E185" fill-opacity="0.24"/>
<rect width="16" height="16" rx="2" transform="matrix(-1 0 0 1 1328 688)" fill="#66E185" fill-opacity="0.24"/>
<rect width="16" height="16" rx="2" transform="matrix(-1 0 0 1 1328 944)" fill="#66E185" fill-opacity="0.24"/>
<rect width="16" height="16" rx="2" transform="matrix(-1 0 0 1 1360 112)" fill="#66E185" fill-opacity="0.24"/>
<rect width="16" height="16" rx="2" transform="matrix(-1 0 0 1 1360 368)" fill="#66E185" fill-opacity="0.24"/>
<rect width="16" height="16" rx="2" transform="matrix(-1 0 0 1 1328 624)" fill="#66E185" fill-opacity="0.24"/>
<rect width="16" height="16" rx="2" transform="matrix(-1 0 0 1 1328 880)" fill="#66E185" fill-opacity="0.24"/>
<rect width="16" height="16" rx="2" transform="matrix(-1 0 0 1 1360 240)" fill="#66E185" fill-opacity="0.24"/>
<rect width="16" height="16" rx="2" transform="matrix(-1 0 0 1 1360 496)" fill="#66E185" fill-opacity="0.24"/>
<rect width="16" height="16" rx="2" transform="matrix(-1 0 0 1 1328 752)" fill="#66E185" fill-opacity="0.24"/>
<rect width="16" height="16" rx="2" transform="matrix(-1 0 0 1 1328 1008)" fill="#66E185" fill-opacity="0.24"/>
<rect width="16" height="16" rx="2" transform="matrix(-1 0 0 1 1328 48)" fill="#66E185" fill-opacity="0.24"/>
<rect width="16" height="16" rx="2" transform="matrix(-1 0 0 1 1328 304)" fill="#66E185" fill-opacity="0.24"/>
<rect width="16" height="16" rx="2" transform="matrix(-1 0 0 1 128 1584)" fill="#66E185" fill-opacity="0.24"/>
<rect width="16" height="16" rx="2" transform="matrix(-1 0 0 1 128 1840)" fill="#66E185" fill-opacity="0.24"/>
<rect width="16" height="16" rx="2" transform="matrix(-1 0 0 1 1328 176)" fill="#66E185" fill-opacity="0.24"/>
<rect width="16" height="16" rx="2" transform="matrix(-1 0 0 1 1328 432)" fill="#66E185" fill-opacity="0.24"/>
<rect width="16" height="16" rx="2" transform="matrix(-1 0 0 1 128 1712)" fill="#66E185" fill-opacity="0.24"/>
<rect width="16" height="16" rx="2" transform="matrix(-1 0 0 1 128 1968)" fill="#66E185" fill-opacity="0.24"/>
<rect width="16" height="16" rx="2" transform="matrix(-1 0 0 1 1328 112)" fill="#66E185" fill-opacity="0.24"/>
<rect width="16" height="16" rx="2" transform="matrix(-1 0 0 1 1328 368)" fill="#66E185" fill-opacity="0.24"/>
<rect width="16" height="16" rx="2" transform="matrix(-1 0 0 1 128 1648)" fill="#66E185" fill-opacity="0.24"/>
<rect width="16" height="16" rx="2" transform="matrix(-1 0 0 1 128 1904)" fill="#66E185" fill-opacity="0.24"/>
<rect width="16" height="16" rx="2" transform="matrix(-1 0 0 1 1328 240)" fill="#66E185" fill-opacity="0.24"/>
<rect width="16" height="16" rx="2" transform="matrix(-1 0 0 1 1328 496)" fill="#66E185" fill-opacity="0.24"/>
<rect width="16" height="16" rx="2" transform="matrix(-1 0 0 1 128 1776)" fill="#66E185" fill-opacity="0.24"/>
<rect width="16" height="16" rx="2" transform="matrix(-1 0 0 1 128 2032)" fill="#66E185" fill-opacity="0.24"/>
<rect width="16" height="16" rx="2" transform="matrix(-1 0 0 1 128 1072)" fill="#66E185" fill-opacity="0.24"/>
<rect width="16" height="16" rx="2" transform="matrix(-1 0 0 1 128 1328)" fill="#66E185" fill-opacity="0.24"/>
<rect width="16" height="16" rx="2" transform="matrix(-1 0 0 1 96 1584)" fill="#66E185" fill-opacity="0.24"/>
<rect width="16" height="16" rx="2" transform="matrix(-1 0 0 1 96 1840)" fill="#66E185" fill-opacity="0.24"/>
<rect width="16" height="16" rx="2" transform="matrix(-1 0 0 1 128 1200)" fill="#66E185" fill-opacity="0.24"/>
<rect width="16" height="16" rx="2" transform="matrix(-1 0 0 1 128 1456)" fill="#66E185" fill-opacity="0.24"/>
<rect width="16" height="16" rx="2" transform="matrix(-1 0 0 1 96 1712)" fill="#66E185" fill-opacity="0.24"/>
<rect width="16" height="16" rx="2" transform="matrix(-1 0 0 1 96 1968)" fill="#66E185" fill-opacity="0.24"/>
<rect width="16" height="16" rx="2" transform="matrix(-1 0 0 1 128 1136)" fill="#66E185" fill-opacity="0.24"/>
<rect width="16" height="16" rx="2" transform="matrix(-1 0 0 1 128 1392)" fill="#66E185" fill-opacity="0.24"/>
<rect width="16" height="16" rx="2" transform="matrix(-1 0 0 1 96 1648)" fill="#66E185" fill-opacity="0.24"/>
<rect width="16" height="16" rx="2" transform="matrix(-1 0 0 1 96 1904)" fill="#66E185" fill-opacity="0.24"/>
<rect width="16" height="16" rx="2" transform="matrix(-1 0 0 1 128 1264)" fill="#66E185" fill-opacity="0.24"/>
<rect width="16" height="16" rx="2" transform="matrix(-1 0 0 1 128 1520)" fill="#66E185" fill-opacity="0.24"/>
<rect width="16" height="16" rx="2" transform="matrix(-1 0 0 1 96 1776)" fill="#66E185" fill-opacity="0.24"/>
<rect width="16" height="16" rx="2" transform="matrix(-1 0 0 1 96 2032)" fill="#66E185" fill-opacity="0.24"/>
<rect width="16" height="16" rx="2" transform="matrix(-1 0 0 1 96 1072)" fill="#66E185" fill-opacity="0.24"/>
<rect width="16" height="16" rx="2" transform="matrix(-1 0 0 1 96 1328)" fill="#66E185" fill-opacity="0.24"/>
<rect width="16" height="16" rx="2" transform="matrix(-1 0 0 1 64 1584)" fill="#66E185" fill-opacity="0.24"/>
<rect width="16" height="16" rx="2" transform="matrix(-1 0 0 1 64 1840)" fill="#66E185" fill-opacity="0.24"/>
<rect width="16" height="16" rx="2" transform="matrix(-1 0 0 1 96 1200)" fill="#66E185" fill-opacity="0.24"/>
<rect width="16" height="16" rx="2" transform="matrix(-1 0 0 1 96 1456)" fill="#66E185" fill-opacity="0.24"/>
<rect width="16" height="16" rx="2" transform="matrix(-1 0 0 1 64 1712)" fill="#66E185" fill-opacity="0.24"/>
<rect width="16" height="16" rx="2" transform="matrix(-1 0 0 1 64 1968)" fill="#66E185" fill-opacity="0.24"/>
<rect width="16" height="16" rx="2" transform="matrix(-1 0 0 1 96 1136)" fill="#66E185" fill-opacity="0.24"/>
<rect width="16" height="16" rx="2" transform="matrix(-1 0 0 1 96 1392)" fill="#66E185" fill-opacity="0.24"/>
<rect width="16" height="16" rx="2" transform="matrix(-1 0 0 1 64 1648)" fill="#66E185" fill-opacity="0.24"/>
<rect width="16" height="16" rx="2" transform="matrix(-1 0 0 1 64 1904)" fill="#66E185" fill-opacity="0.24"/>
<rect width="16" height="16" rx="2" transform="matrix(-1 0 0 1 96 1264)" fill="#66E185" fill-opacity="0.24"/>
<rect width="16" height="16" rx="2" transform="matrix(-1 0 0 1 96 1520)" fill="#66E185" fill-opacity="0.24"/>
<rect width="16" height="16" rx="2" transform="matrix(-1 0 0 1 64 1776)" fill="#66E185" fill-opacity="0.24"/>
<rect width="16" height="16" rx="2" transform="matrix(-1 0 0 1 64 2032)" fill="#66E185" fill-opacity="0.24"/>
<rect width="16" height="16" rx="2" transform="matrix(-1 0 0 1 64 1072)" fill="#66E185" fill-opacity="0.24"/>
<rect width="16" height="16" rx="2" transform="matrix(-1 0 0 1 64 1328)" fill="#66E185" fill-opacity="0.24"/>
<rect width="16" height="16" rx="2" transform="matrix(-1 0 0 1 32 1584)" fill="#66E185" fill-opacity="0.24"/>
<rect width="16" height="16" rx="2" transform="matrix(-1 0 0 1 32 1840)" fill="#66E185" fill-opacity="0.24"/>
<rect width="16" height="16" rx="2" transform="matrix(-1 0 0 1 64 1200)" fill="#66E185" fill-opacity="0.24"/>
<rect width="16" height="16" rx="2" transform="matrix(-1 0 0 1 64 1456)" fill="#66E185" fill-opacity="0.24"/>
<rect width="16" height="16" rx="2" transform="matrix(-1 0 0 1 32 1712)" fill="#66E185" fill-opacity="0.24"/>
<rect width="16" height="16" rx="2" transform="matrix(-1 0 0 1 32 1968)" fill="#66E185" fill-opacity="0.24"/>
<rect width="16" height="16" rx="2" transform="matrix(-1 0 0 1 64 1136)" fill="#66E185" fill-opacity="0.24"/>
<rect width="16" height="16" rx="2" transform="matrix(-1 0 0 1 64 1392)" fill="#66E185" fill-opacity="0.24"/>
<rect width="16" height="16" rx="2" transform="matrix(-1 0 0 1 32 1648)" fill="#66E185" fill-opacity="0.24"/>
<rect width="16" height="16" rx="2" transform="matrix(-1 0 0 1 32 1904)" fill="#66E185" fill-opacity="0.24"/>
<rect width="16" height="16" rx="2" transform="matrix(-1 0 0 1 64 1264)" fill="#66E185" fill-opacity="0.24"/>
<rect width="16" height="16" rx="2" transform="matrix(-1 0 0 1 64 1520)" fill="#66E185" fill-opacity="0.24"/>
<rect width="16" height="16" rx="2" transform="matrix(-1 0 0 1 32 1776)" fill="#66E185" fill-opacity="0.24"/>
<rect width="16" height="16" rx="2" transform="matrix(-1 0 0 1 32 2032)" fill="#66E185" fill-opacity="0.24"/>
<rect width="16" height="16" rx="2" transform="matrix(-1 0 0 1 1424 560)" fill="#66E185" fill-opacity="0.24"/>
<rect width="16" height="16" rx="2" transform="matrix(-1 0 0 1 1424 816)" fill="#66E185" fill-opacity="0.24"/>
<rect width="16" height="16" rx="2" transform="matrix(-1 0 0 1 32 1072)" fill="#66E185" fill-opacity="0.24"/>
<rect width="16" height="16" rx="2" transform="matrix(-1 0 0 1 32 1328)" fill="#66E185" fill-opacity="0.24"/>
<rect width="16" height="16" rx="2" transform="matrix(-1 0 0 1 1424 688)" fill="#66E185" fill-opacity="0.24"/>
<rect width="16" height="16" rx="2" transform="matrix(-1 0 0 1 1424 944)" fill="#66E185" fill-opacity="0.24"/>
<rect width="16" height="16" rx="2" transform="matrix(-1 0 0 1 32 1200)" fill="#66E185" fill-opacity="0.24"/>
<rect width="16" height="16" rx="2" transform="matrix(-1 0 0 1 32 1456)" fill="#66E185" fill-opacity="0.24"/>
<rect width="16" height="16" rx="2" transform="matrix(-1 0 0 1 1424 624)" fill="#66E185" fill-opacity="0.24"/>
<rect width="16" height="16" rx="2" transform="matrix(-1 0 0 1 1424 880)" fill="#66E185" fill-opacity="0.24"/>
<rect width="16" height="16" rx="2" transform="matrix(-1 0 0 1 32 1136)" fill="#66E185" fill-opacity="0.24"/>
<rect width="16" height="16" rx="2" transform="matrix(-1 0 0 1 32 1392)" fill="#66E185" fill-opacity="0.24"/>
<rect width="16" height="16" rx="2" transform="matrix(-1 0 0 1 1424 752)" fill="#66E185" fill-opacity="0.24"/>
<rect width="16" height="16" rx="2" transform="matrix(-1 0 0 1 1424 1008)" fill="#66E185" fill-opacity="0.24"/>
<rect width="16" height="16" rx="2" transform="matrix(-1 0 0 1 32 1264)" fill="#66E185" fill-opacity="0.24"/>
<rect width="16" height="16" rx="2" transform="matrix(-1 0 0 1 32 1520)" fill="#66E185" fill-opacity="0.24"/>
</svg>
