<svg width="993" height="221" viewBox="0 0 993 221" fill="none" xmlns="http://www.w3.org/2000/svg">
<path d="M125.692 177.306C123.857 184.142 119.384 189.972 113.253 193.516H113.268C107.129 197.046 99.8407 197.999 92.9996 196.168C86.1585 194.337 80.3231 189.87 76.7727 183.747C72.3961 176.231 73.2894 170.142 74.4895 161.96L74.4918 161.945C75.5127 154.874 74.1195 147.666 70.5371 141.483C66.9547 135.3 61.3919 130.503 54.7463 127.867L54.7428 127.865C47.0502 124.812 41.326 122.54 36.9777 115.021C33.5358 108.891 32.6501 101.653 34.5126 94.8755C36.375 88.0978 40.8355 82.3263 46.9275 78.8118C53.0196 75.2973 60.2523 74.3228 67.0585 76.0996C73.8646 77.8763 79.6959 82.2612 83.2887 88.3039C87.6676 95.8236 86.7711 101.923 85.5701 110.095L85.5696 110.098C84.5397 117.168 85.9233 124.379 89.4974 130.567C93.0714 136.755 98.6275 141.56 105.269 144.207L105.315 144.225C112.987 147.27 118.705 149.539 123.038 157.053C126.572 163.187 127.526 170.47 125.692 177.306Z" fill="#5822FF"/>
<path d="M47.0961 183.261C44.9214 187.66 41.4902 191.316 37.2362 193.767C34.4096 195.394 31.2899 196.449 28.0551 196.872C24.8204 197.295 21.534 197.076 18.3837 196.23C15.2334 195.383 12.2808 193.925 9.69458 191.938C7.10836 189.952 4.93914 187.475 3.3108 184.651C0.861056 180.399 -0.271904 175.517 0.0551496 170.621C0.382203 165.726 2.15458 161.037 5.14823 157.148C8.14188 153.259 12.2224 150.344 16.8739 148.772C21.5254 147.2 26.5391 147.041 31.2811 148.315C36.0231 149.589 40.2806 152.239 43.5152 155.931C46.7499 159.622 48.8166 164.189 49.4539 169.053C50.0913 173.918 49.2708 178.863 47.0961 183.261Z" fill="#5822FF"/>
<path d="M156.728 183.519C147.406 167.399 160.18 157.448 150.014 139.877H150.022C139.872 122.283 124.893 128.391 115.541 112.233C107.239 97.868 117.967 84.3992 108.942 68.7731C98.5179 50.7313 85.8586 58.8216 74.3473 40.9469C57.5823 14.8983 97.7347 -19.6205 121.403 13.8044C130.565 26.7261 118.514 40.8253 128.246 57.6441C138.343 75.0631 167.023 72.4043 166.262 99.3721C165.905 110.888 162.514 117.004 169.303 128.748C179.454 146.326 194.432 140.211 203.784 156.377C221.667 187.318 174.626 214.468 156.728 183.519Z" fill="#5822FF"/>
<path d="M272.032 47.9032H230.977V148.61H272.032C306.507 148.61 322.528 124.864 322.528 98.2566C322.528 71.6494 307.365 47.9032 272.032 47.9032ZM272.461 128.011H255.009V68.5023H272.461C289.913 68.5023 298.496 83.0934 298.496 98.2566C298.496 113.42 289.913 128.011 272.461 128.011ZM404.939 108.556C404.939 82.5212 386.2 70.7911 367.031 70.7911C341.711 70.7911 327.12 87.3848 327.12 110.845C327.12 133.161 341.139 150.899 367.46 150.899C388.775 150.899 400.505 137.738 403.509 123.433H380.764C378.904 129.012 374.47 132.588 367.317 132.588C357.733 132.588 351.296 126.151 349.722 116.567H404.51C404.796 114.421 404.939 110.702 404.939 108.556ZM367.46 88.5292C375.9 88.5292 381.622 93.679 382.48 102.834H350.294C352.011 94.6803 356.589 88.5292 367.46 88.5292ZM411.884 45.6145V148.61H434.772V45.6145H411.884ZM496.602 91.3902V73.0799H476.003V52.4808H453.115V73.0799H439.383V91.3902H453.115V125.436C453.115 143.603 460.268 148.61 475.431 148.61H496.602V130.3H482.87C476.289 130.3 476.003 130.013 476.003 122.861V91.3902H496.602ZM503.417 128.44C503.417 141.028 514.432 150.899 529.738 150.899C542.327 150.899 550.767 144.175 555.487 134.877C556.06 133.876 556.632 132.159 558.491 133.018C560.065 133.733 558.777 136.022 557.633 138.453C556.632 140.456 556.06 142.459 556.06 144.748V148.61H578.947V106.84C578.947 76.5131 561.638 70.7911 543.757 70.7911C526.877 70.7911 508.281 78.0866 505.706 98.2566H528.308C529.452 92.5346 532.886 87.957 543.185 87.957C553.628 87.957 555.916 93.3929 556.06 97.6844C556.203 104.122 546.618 103.263 533.172 104.122C516.864 105.123 503.417 111.417 503.417 128.44ZM556.06 111.989C555.916 127.582 545.331 133.733 538.464 134.877C532.313 135.879 526.305 133.161 526.305 126.866C526.305 120.429 531.026 117.997 536.319 117.425C547.047 116.138 552.34 115.852 556.06 111.989ZM578.94 47.9032L604.116 148.61H638.448L647.889 88.3862C648.461 84.6669 648.748 80.0893 648.748 75.5117C648.748 74.0813 649.034 72.5077 651.036 72.5077C653.039 72.5077 653.325 74.0813 653.325 75.5117C653.325 80.0893 653.611 84.6669 654.183 88.3862L663.625 148.61H697.957L723.133 47.9032H697.957L683.795 117.997C682.936 122.432 682.507 126.866 682.507 130.157C682.507 131.587 682.221 133.161 680.218 133.161C678.216 133.161 677.93 131.587 677.93 130.157C677.93 126.866 677.644 122.432 676.928 117.997L664.769 47.9032H637.304L625.144 117.997C624.286 122.432 624.143 126.866 624.143 130.157C624.143 131.587 623.857 133.161 621.854 133.161C619.852 133.161 619.566 131.587 619.566 130.157C619.423 126.866 619.136 122.432 618.278 117.997L604.116 47.9032H578.94ZM716.175 128.44C716.175 141.028 727.19 150.899 742.496 150.899C755.085 150.899 763.524 144.175 768.245 134.877C768.817 133.876 769.389 132.159 771.249 133.018C772.823 133.733 771.535 136.022 770.391 138.453C769.389 140.456 768.817 142.459 768.817 144.748V148.61H791.705V106.84C791.705 76.5131 774.396 70.7911 756.515 70.7911C739.635 70.7911 721.039 78.0866 718.464 98.2566H741.066C742.21 92.5346 745.643 87.957 755.943 87.957C766.385 87.957 768.674 93.3929 768.817 97.6844C768.96 104.122 759.376 103.263 745.929 104.122C729.622 105.123 716.175 111.417 716.175 128.44ZM768.817 111.989C768.674 127.582 758.089 133.733 751.222 134.877C745.071 135.879 739.063 133.161 739.063 126.866C739.063 120.429 743.784 117.997 749.076 117.425C759.805 116.138 765.098 115.852 768.817 111.989ZM794.019 73.0799L819.195 148.61H851.238L876.415 73.0799H852.097L838.507 121.717C837.792 124.435 837.505 128.583 837.505 131.873C837.505 133.304 837.219 135.02 835.217 135.02C833.214 135.02 832.928 133.304 832.928 131.873C832.928 128.583 832.642 124.435 831.927 121.717L818.337 73.0799H794.019ZM951.991 108.556C951.991 82.5212 933.251 70.7911 914.083 70.7911C888.763 70.7911 874.172 87.3848 874.172 110.845C874.172 133.161 888.191 150.899 914.512 150.899C935.826 150.899 947.556 137.738 950.56 123.433H927.815C925.956 129.012 921.521 132.588 914.369 132.588C904.784 132.588 898.347 126.151 896.774 116.567H951.562C951.848 114.421 951.991 110.702 951.991 108.556ZM914.512 88.5292C922.952 88.5292 928.674 93.679 929.532 102.834H897.346C899.062 94.6803 903.64 88.5292 914.512 88.5292Z" fill="#1D0E0E"/>
<path opacity="0.6" d="M738.606 176.646V172.81H713.887V210.315H738.606V206.479H718.575V193.48H735.197V189.644H718.575V176.646H738.606ZM758.327 182.612C753.425 182.612 750.016 186.288 748.897 188.952C748.844 189.112 748.631 189.431 748.311 189.325C747.885 189.165 748.151 188.686 748.311 188.259C748.684 187.141 748.844 186.288 748.844 185.329V183.039H744.582V210.315H748.844V196.73C748.844 190.23 753.372 186.235 757.527 186.235C761.31 186.235 764.187 187.993 764.187 194.333V210.315H768.449V194.119C768.449 186.128 764.613 182.612 758.327 182.612ZM797.406 195.877C797.406 186.501 791.28 182.612 785.42 182.612C777.855 182.612 772.687 188.313 772.687 196.677C772.687 204.188 777.216 210.741 785.526 210.741C792.239 210.741 795.968 205.893 796.927 201.365H792.452C791.493 204.454 789.575 206.905 785.686 206.905C780.252 206.905 777.056 202.537 776.843 197.742H797.3C797.353 197.263 797.406 196.623 797.406 195.877ZM785.74 186.235C790.001 186.235 792.772 189.325 793.145 194.333H777.056C777.642 189.858 779.933 186.235 785.74 186.235ZM805.541 189.325C805.115 189.272 805.275 188.792 805.434 188.366C805.861 187.087 805.967 186.182 805.967 185.169V183.039H801.705V210.315H805.967V196.41C805.967 189.272 808.258 186.448 816.196 186.981V182.612C809.323 182.612 807.885 184.477 806.074 188.899C805.967 189.112 805.861 189.378 805.541 189.325ZM817.481 196.463C817.481 204.614 822.435 210.315 829.521 210.315C833.783 210.315 836.926 208.077 838.684 204.401C838.79 204.135 838.95 203.655 839.323 203.815C839.696 203.975 839.589 204.241 839.27 205.04C838.844 206.053 838.79 206.692 838.79 207.864C838.79 214.097 835.967 217.347 830.373 217.347C824.513 217.347 822.968 214.47 822.595 212.019H818.333C818.813 217.187 822.382 220.969 830.426 220.969C838.098 220.969 843.052 217.027 843.052 207.864V183.039H838.79V185.01C838.79 186.075 838.844 186.714 839.27 187.78C839.483 188.259 839.749 188.792 839.323 188.952C838.897 189.112 838.79 188.632 838.684 188.419C836.979 184.956 833.889 182.612 829.521 182.612C822.435 182.612 817.481 188.313 817.481 196.463ZM830.267 206.479C824.726 206.479 821.743 202.11 821.743 196.463C821.743 190.816 824.726 186.448 830.267 186.448C835.328 186.448 838.79 190.816 838.79 196.463C838.79 202.11 835.328 206.479 830.267 206.479ZM846.471 183.039L857.871 211.54L857.392 212.978C856.699 215.056 855.847 216.707 851.798 216.707H848.921V220.543H852.224C857.126 220.543 859.629 218.625 861.494 213.564L872.895 183.039H868.206L860.801 204.561C860.588 205.2 860.429 205.786 860.429 206.585C860.429 206.905 860.375 207.278 860.002 207.278C859.629 207.278 859.576 206.905 859.576 206.585C859.576 205.786 859.416 205.147 859.203 204.508L851.159 183.039H846.471ZM909.568 172.384C898.381 172.384 891.668 180.961 891.668 191.562C891.668 202.164 898.381 210.741 909.568 210.741C920.756 210.741 927.468 202.164 927.468 191.562C927.468 180.961 920.756 172.384 909.568 172.384ZM909.568 206.905C901.311 206.905 896.357 200.086 896.357 191.562C896.357 183.039 901.311 176.22 909.568 176.22C917.826 176.22 922.78 183.039 922.78 191.562C922.78 200.086 917.826 206.905 909.568 206.905ZM945.033 189.058C936.988 187.94 935.976 184.583 935.976 182.293C935.976 179.629 937.787 176.22 944.5 176.22C951.053 176.22 953.077 180.375 953.077 184.317H957.658C957.499 178.244 954.036 172.384 944.606 172.384C936.243 172.384 931.288 176.752 931.288 182.612C931.288 189.005 936.189 192.308 944.5 193.427C952.278 194.492 954.356 196.57 954.356 199.873C954.356 203.016 952.331 206.905 944.553 206.905C936.509 206.905 934.857 201.578 934.751 197.103H930.063C930.063 204.028 934.112 210.741 944.553 210.741C953.983 210.741 959.044 205.626 959.044 199.553C959.044 191.669 952.864 190.124 945.033 189.058Z" fill="#1D0E0E"/>
</svg>
