<svg id="Group_355" data-name="Group 355" xmlns="http://www.w3.org/2000/svg" width="500" height="298.283" viewBox="0 0 500 298.283">
  <g id="Group_5" data-name="Group 5" transform="translate(301.321 82.526)">
    <path id="Path_19" data-name="Path 19" d="M187.758,820.114h-2.7c-6.309,0-9.733-3.424-9.733-9.915v-4.5c0-6.491,3.424-9.915,9.908-9.915h3.43v-18c0-6.491,3.424-9.915,9.908-9.915h10.453c6.484,0,9.908,3.424,9.908,9.915v18h9.552c6.491,0,9.908,3.424,9.908,9.915v4.5c0,6.491-3.417,9.915-9.726,9.915h-9.733v26.865c0,7.93,5.226,11,10.816,11.717,7.2.9,9.908,3.061,9.908,9.909v8.112c0,7.385-4.507,9.908-12.793,9.908-13.695,0-39.107-6.3-39.107-33.875Z" transform="translate(-175.328 -756.158)" fill="#651fff"/>
    <path id="Path_20" data-name="Path 20" d="M198.214,829.857h-2.341c-6.491,0-9.914-3.424-9.914-9.908v-4.507c0-6.484,3.424-9.908,9.914-9.908h2.341v-5.589c0-29.556,29.192-33.881,38.925-33.881H240.2c6.484,0,9.908,3.424,9.908,9.908v6.672c0,6.484-3.424,9.37-9.908,9.909-3.962.363-10.809,1.082-10.809,9.013v3.968H263.81v-5.589c0-29.556,29.186-33.881,38.919-33.881h3.061c6.491,0,9.915,3.424,9.915,9.908v6.672c0,6.484-3.424,9.37-9.915,9.909-3.962.363-10.809,1.082-10.809,9.013v3.968h9.545c6.491,0,9.914,3.423,9.914,9.908v4.507c0,6.484-3.067,9.908-8.468,9.908H294.98V885.72c0,6.485-3.424,9.908-9.908,9.908H273.717c-6.491,0-9.908-3.424-9.908-9.908V829.857H229.391V885.72c0,6.485-3.43,9.908-9.914,9.908H208.129c-6.491,0-9.915-3.424-9.915-9.908Z" transform="translate(-117.024 -766.063)" fill="#651fff"/>
  </g>
  <g id="Group_6" data-name="Group 6" transform="translate(112.329 0)">
    <path id="Path_21" data-name="Path 21" d="M221.783,824.65a19.345,19.345,0,0,1-9.707-2.606l-56.161-32.4a19.454,19.454,0,0,1,19.446-33.7l56.161,32.4a19.454,19.454,0,0,1-9.739,36.306Z" transform="translate(-146.182 -753.336)" fill="#1de8b5"/>
  </g>
  <g id="Group_7" data-name="Group 7" transform="translate(112.328 97.267)">
    <path id="Path_22" data-name="Path 22" d="M221.8,872.1a19.477,19.477,0,0,1-9.733-2.607L155.91,837.057a19.455,19.455,0,1,1,19.459-33.694l26.981,15.582V787.794a19.45,19.45,0,0,1,29.173-16.846l56.167,32.415a19.451,19.451,0,1,1-19.446,33.694l-26.988-15.576v31.164A19.455,19.455,0,0,1,221.8,872.1Z" transform="translate(-146.182 -768.336)" fill="#651fff"/>
  </g>
  <g id="Group_8" data-name="Group 8" transform="translate(0 129.687)">
    <path id="Path_23" data-name="Path 23" d="M204.461,844.684a19.383,19.383,0,0,1-9.714-2.613l-56.161-32.435a19.455,19.455,0,1,1,19.459-33.693l56.161,32.435a19.457,19.457,0,0,1-9.746,36.306Z" transform="translate(-128.859 -773.336)" fill="#00cdff"/>
  </g>
  <g id="Group_9" data-name="Group 9" transform="translate(0.019 64.845)">
    <path id="Path_24" data-name="Path 24" d="M204.464,834.67a19.417,19.417,0,0,1-9.733-2.613L138.59,799.635a19.45,19.45,0,1,1,19.453-33.687l46.421,26.8L250.9,765.941a19.453,19.453,0,0,1,19.453,33.694L214.19,832.063A19.434,19.434,0,0,1,204.464,834.67Z" transform="translate(-128.862 -763.336)" fill="#00cdff"/>
  </g>
  <g id="Group_10" data-name="Group 10" transform="translate(56.164 194.551)">
    <path id="Path_25" data-name="Path 25" d="M269.286,854.667a19.354,19.354,0,0,1-9.707-2.613l-46.44-26.8-46.441,26.8a19.451,19.451,0,0,1-19.446-33.693l56.167-32.415a19.438,19.438,0,0,1,19.447,0l56.16,32.415a19.456,19.456,0,0,1-9.739,36.306Z" transform="translate(-137.52 -783.339)" fill="#d400f8"/>
  </g>
  <ellipse id="Ellipse_1" data-name="Ellipse 1" cx="19.453" cy="19.453" rx="19.453" ry="19.453" transform="translate(112.331)" fill="#64ffd9"/>
  <ellipse id="Ellipse_2" data-name="Ellipse 2" cx="19.453" cy="19.453" rx="19.453" ry="19.453" transform="translate(112.331 259.377)" fill="#d400f8"/>
  <ellipse id="Ellipse_3" data-name="Ellipse 3" cx="19.453" cy="19.453" rx="19.453" ry="19.453" transform="translate(56.167 32.407)" fill="#1de8b5"/>
  <ellipse id="Ellipse_4" data-name="Ellipse 4" cx="19.453" cy="19.453" rx="19.453" ry="19.453" transform="translate(56.167 162.125)" fill="#00ebff"/>
  <ellipse id="Ellipse_5" data-name="Ellipse 5" cx="19.453" cy="19.453" rx="19.453" ry="19.453" transform="translate(168.495 226.969)" fill="#df40fa"/>
  <ellipse id="Ellipse_6" data-name="Ellipse 6" cx="19.453" cy="19.453" rx="19.453" ry="19.453" transform="translate(224.66 129.688)" fill="#7c4dff"/>
  <ellipse id="Ellipse_7" data-name="Ellipse 7" cx="19.453" cy="19.453" rx="19.453" ry="19.453" transform="translate(0.02 64.844)" fill="#00ebff"/>
  <ellipse id="Ellipse_8" data-name="Ellipse 8" cx="19.453" cy="19.453" rx="19.453" ry="19.453" transform="translate(224.643 194.532)" fill="#651fff"/>
  <ellipse id="Ellipse_9" data-name="Ellipse 9" cx="19.453" cy="19.453" rx="19.453" ry="19.453" transform="translate(0.02 194.532)" fill="#1de8b5"/>
  <ellipse id="Ellipse_10" data-name="Ellipse 10" cx="19.453" cy="19.453" rx="19.453" ry="19.453" transform="translate(224.643 64.844)" fill="#651fff"/>
</svg>
