<svg xmlns="http://www.w3.org/2000/svg" width="511.2" height="98.6" style="enable-background:new 0 0 511.2 98.6" xml:space="preserve"><path d="M38 60.8c-1.1-1.6-3.3-5.2-2.7-8.2.6-3.1 1.8-3.7 3.1-6.4 1.1-2.1.9-6.1.8-7.6 0-.3-.3-.4-.5-.2-1.3 1-4.7 3.4-5.8 3.5-.4 0-.2-2.6.1-4.3.6-3.8 1.8-7.7 4.4-12.2 2.6-4.4 8.2-8.6 9.9-9 1.7-.5 2.6.1 3.1.7s1.6 2.2 3.2 4c1.6 1.8 4.1 3.1 5.5 3.3.6.1 1.2-.1 1.4-.4.2-.3.2-.8 0-1.2-.3-1-1.2-1.8-1.7-3.2-.5-1.4-.1-2.1-.6-3.5-.5-1.3-2.6-2.2-2.6-2.2s1.2-.6 1.9-1.8 0-2.7.3-4.6c.1-1.5.6-2.5.8-3.3.2-.6 0-1.1-.2-1.4-.3-.3-.9-.2-1.3-.1S54.4 4.1 52.8 6c-1.7 2-2.6 5.3-3.4 6.6-.5.7-2.4 1-4.6 1.4-1.8.3-3.1.4-5 1-3.3 1-15.7 4.4-22.1 19.7-6.4 15.3 1 30 1 30s-1.9.4-3.6.1c-1.2-.2-2.2-.7-2.7-1-.1-.1-.3 0-.2.2.4 1.1 1.5 4.1 4.2 5.4 3.3 1.6 5.8 1.2 5.8 1.2s3 3.4 8.2 8.6c5.2 5.2 6.3 6.4 6.3 6.4s1 1 2 .8c1-.2 1.1-.8 1.2-1.3 0-.2.2-1.2.1-2.6 0-2.2-.4-5-.4-5s2.4-3.8 2.4-7.3c0-3.6-2.9-7.8-4-9.4zm-5.1 13c-.7 0-1.3-.6-1.3-1.3 0-.7.6-1.3 1.3-1.3.7 0 1.3.6 1.3 1.3-.1.7-.7 1.3-1.3 1.3zM93.9 35.5c-.3-1.1-1.5-4.1-4.2-5.4-3.2-1.6-5.8-1.2-5.8-1.2s-2.9-3.4-8.2-8.7c-5.2-5.2-6.3-6.4-6.3-6.4s-1-1-2-.8c-1 .2-1.1.8-1.3 1.3 0 .2-.2 1.2-.2 2.6 0 2.2.4 5 .4 5s-2.4 3.8-2.4 7.3 2.9 7.7 4 9.3c1.1 1.6 3.3 5.2 2.7 8.2-.6 3.1-1.8 3.7-3.1 6.3-1.1 2.1-.9 6.1-.8 7.6 0 .3.3.4.5.3 1.3-.9 4.7-3.4 5.8-3.5.4 0 .1 2.6-.1 4.3-.6 3.7-1.8 7.7-4.4 12.1-2.6 4.4-8.3 8.5-9.9 9-1.7.5-2.6-.1-3.1-.7s-1.6-2.2-3.2-4c-1.6-1.8-4.1-3.1-5.4-3.3-.6-.1-1.2.1-1.4.4-.2.3-.2.8-.1 1.2.3 1 1.2 1.8 1.7 3.2.5 1.4.1 2.1.6 3.5.5 1.3 2.5 2.2 2.5 2.2s-1.2.6-1.9 1.8c-.7 1.2 0 2.7-.3 4.6-.2 1.3-.6 2.3-.9 3.1-.2.6-.1 1.1.2 1.4.3.3.9.2 1.3.1s2.7-1.3 4.3-3.3c1.7-1.9 2.6-5.3 3.5-6.6.5-.7 2.4-1 4.6-1.4 1.8-.3 3.1-.4 5-.9 3.3-.9 15.8-4.3 22.2-19.6 6.4-15.2-.9-30-.9-30s1.9-.4 3.6-.1c1.2.2 2.2.7 2.7 1 .2.3.4.2.3.1zm-20.4-7c-.7 0-1.3-.6-1.3-1.3 0-.7.6-1.3 1.3-1.3.7 0 1.3.6 1.3 1.3 0 .8-.6 1.3-1.3 1.3zM128.5 74.4c11.2 0 20.2-7 21.7-17.1h-2.5c-1.6 9-9.4 14.8-19.1 14.8-12 0-21.4-8.9-21.4-22.5s9.3-22.5 21.4-22.5c9.8 0 17.5 5.9 19 14.8h2.5c-1.4-10-10.5-17.1-21.7-17.1-13.3 0-23.9 10-23.9 24.8.1 14.8 10.5 24.8 24 24.8zM162.4 50.4h24v-2.3h-24V27.6h28.4v-2.2H160v48.5h31.2v-2.2h-28.7V50.4zM240.4 73.9l-20.5-48.5h-2.7l-20.5 48.5h2.5l6.4-15h25.8l6.4 15h2.6zm-21.9-45.7 12 28.4h-24l12-28.4zM282.5 70.1l-32.3-44.7h-2.6v48.5h2.5V29.2l32.3 44.7h2.6V25.3h-2.4v44.8zM301.4 25.3v48.5h14.2c15.4 0 26.2-9.2 26.2-24.3 0-15.1-10.8-24.3-26.2-24.3h-14.2zm7.4 42V31.9h7.1c11.2 0 18.3 6.4 18.3 17.7s-7.1 17.7-18.3 17.7h-7.1zM388.9 73.9l-13-19.2c7.1-1.7 11.7-7.1 11.7-14.2 0-8.7-6.9-15.1-17-15.1h-19.7v48.5h7.4V55.6h9.6l12.3 18.3h8.7zm-18.7-42c6.5 0 9.9 3.3 9.9 8.6s-3.4 8.6-9.9 8.6h-11.9V31.9h11.9zM420 74.4c13.8 0 24.7-10.3 24.7-24.8S433.8 24.8 420 24.8c-13.8 0-24.7 10.3-24.7 24.8s10.9 24.8 24.7 24.8zm0-6.6c-9.8 0-17.1-7.3-17.1-18.2 0-11 7.3-18.2 17.1-18.2s17.1 7.3 17.1 18.2c.1 11-7.2 18.2-17.1 18.2zM453.9 25.3v48.5h7.4V56.1h11.5c10.5 0 17.3-6.4 17.3-15.4s-6.8-15.4-17.3-15.4h-18.9zm7.4 24.3V31.9h11.2c6.8 0 10.2 3.3 10.2 8.9 0 5.5-3.4 8.9-10.2 8.9h-11.2z"/></svg>