<svg width="200" height="76" viewBox="0 0 200 76" fill="none" xmlns="http://www.w3.org/2000/svg">
<path d="M18.7995 54.8631C22.8744 58.9273 28.4849 61.4012 34.2135 61.5779C38.0522 61.7546 41.8909 60.93 45.3163 59.2218C49.8637 56.9247 53.6434 53.1549 55.8285 48.5606C57.4231 45.2032 58.1908 41.4335 58.0727 37.7227C57.8955 33.4817 56.5963 29.2997 54.293 25.7656C51.7536 21.8781 48.0329 18.7563 43.6627 17.0481C40.1192 15.5756 36.1033 15.0455 32.2055 15.5167C28.0124 16.0468 23.9965 17.6961 20.6893 20.3466C17.264 23.0561 14.6064 26.8258 13.189 30.949C11.8307 34.8954 11.5945 39.2541 12.4213 43.3183C13.3662 47.6771 15.6104 51.7413 18.7995 54.8631ZM14.6064 31.2435C16.8506 24.7643 22.2248 19.522 28.7802 17.6961C24.2328 19.522 20.4531 23.2917 18.5042 27.8272C16.9096 31.4791 16.6734 35.6611 17.7955 39.4897C19.331 44.732 23.406 49.0318 28.544 50.74C31.8512 51.8002 35.5127 51.6824 38.7609 50.3277C43.013 48.5606 46.4384 44.6731 47.3833 40.1376C48.0329 36.9569 47.4424 33.5406 45.6706 30.7723C44.2533 28.4751 42.0681 26.6491 39.5287 25.6478C37.6388 24.941 35.4537 24.7054 33.4457 25.1177C29.0164 25.9423 25.2958 29.5353 24.6462 34.0119C24.2328 36.8391 25.1186 39.8431 27.1266 41.9047C28.6621 43.5539 30.7881 44.732 33.0914 44.8498C35.8671 45.0854 38.5837 43.7896 40.3555 41.6691C41.5957 40.1376 42.0091 38.0172 41.4775 36.1323C40.7689 33.5995 38.4656 31.8325 35.9261 31.8325C33.8001 31.7736 31.7921 32.8927 30.67 34.6598C29.5479 36.4268 29.4889 38.7829 30.4929 40.6089C31.6149 42.8471 34.2135 44.143 36.6348 43.7307C35.2175 44.2019 33.682 44.4375 32.2055 44.143C29.7842 43.6718 27.6581 42.0225 26.4179 39.902C25.2367 37.8994 24.8233 35.4844 25.3549 33.1872C26.2998 29.2408 29.666 26.1779 33.6229 25.4711C36.3395 24.941 39.1743 25.53 41.4775 27.0614C45.1982 29.4764 47.4424 33.8941 47.088 38.3117C46.9108 41.3746 45.4344 44.2019 43.3083 46.4401C41.0051 48.8551 37.816 50.3866 34.5088 50.74C32.5008 50.9167 30.4929 50.74 28.544 50.092C26.0045 49.2674 23.7012 47.6771 21.9295 45.6744C19.5082 43.0238 18.0317 39.6075 17.7364 36.0734C17.4412 33.1283 18.0317 30.1243 19.2719 27.4738C20.6303 24.6465 22.6382 22.2315 25.1777 20.3466C27.9534 18.2851 31.3197 16.9892 34.745 16.7536C37.7569 16.6947 40.8279 17.2837 43.5446 18.4618C47.3242 20.0521 50.6905 22.8205 52.9938 26.2368C55.0608 29.2997 56.301 32.8338 56.6553 36.4857C57.0097 40.4911 56.301 44.6142 54.4702 48.1483C51.8126 53.744 46.6746 57.9849 40.7098 59.5163C36.2805 60.6944 31.5559 60.4588 27.3038 58.8095C23.5241 57.337 20.1578 54.7453 17.7364 51.5057C15.3741 48.325 13.8977 44.4964 13.5434 40.6089C13.13 37.3693 13.5434 34.1886 14.6064 31.2435ZM35.8671 41.7869C35.808 41.6691 35.749 41.6102 35.6899 41.4924C35.3946 41.3157 35.1584 41.139 34.8631 41.0801C34.4497 41.0212 34.1544 41.139 33.741 41.1979C33.682 40.8445 33.5638 40.7267 33.3867 40.6678L33.4457 40.3143C33.2095 40.2554 32.8552 40.4911 32.7961 40.1376C32.6189 39.5486 33.741 39.5486 33.9182 39.9609L34.0363 39.4897C34.5678 39.0185 34.745 38.4295 35.5127 38.3117L35.3946 37.8405C35.749 37.8994 35.9261 38.0761 36.2214 38.2528C36.1624 38.0172 36.1033 37.7816 36.0443 37.546C35.8671 37.3104 35.749 37.0747 35.6899 36.8391L35.5127 36.898C35.3356 36.7213 35.2175 36.5446 35.0403 36.3679C34.8631 36.7802 34.6859 37.1926 34.5088 37.546C34.3316 37.1337 33.9772 37.0158 33.741 36.7802C33.9182 36.4268 34.2135 35.8378 34.6269 36.2501C34.5088 35.72 34.9222 35.72 35.1584 35.3077C35.5127 35.6611 35.2175 35.8967 34.9812 36.0734C35.2765 36.1912 35.6899 36.7802 35.808 36.1323L35.9852 35.9556C35.808 35.3077 35.6899 34.7187 34.9812 34.542C34.8631 34.7187 34.8041 34.8365 34.6859 34.9543C34.745 35.131 34.745 35.3077 34.745 35.4844C34.5678 35.3077 34.4497 35.0132 34.3316 34.7776C34.1544 35.0721 34.0363 35.2488 33.741 35.3666C33.8591 35.0721 33.9772 34.7776 34.0954 34.4831C33.9182 34.4242 33.8001 34.4242 33.682 34.4242C33.5638 33.8352 33.1504 33.953 32.7961 34.2475C32.9733 34.3653 33.0914 34.4831 33.2095 34.6009C33.1504 34.7187 33.0914 34.8365 33.0323 34.8954C32.8552 34.7776 32.737 34.6009 32.5599 34.4831C32.3236 34.542 32.0874 34.542 31.8512 34.542C33.0323 33.0694 34.9812 32.2448 36.8711 32.5982C37.1663 32.6571 37.5798 32.6571 37.7569 33.0105C37.4616 33.0694 37.2254 33.0694 36.9301 33.1283C36.5758 33.4228 36.5167 33.6584 35.9852 33.5995C35.9852 34.0708 36.1624 34.1886 36.4577 34.4831C36.5758 34.8954 36.5167 35.4255 36.3395 35.8378C36.5167 36.1323 36.6348 36.3679 36.812 36.6624C37.1664 36.1323 37.4026 35.72 38.0522 35.5433C38.4656 34.8954 38.4066 34.0708 38.879 33.4817C39.4696 33.953 39.9421 34.542 40.3555 35.2488C39.5877 35.2488 39.5286 35.72 39.1152 36.309C38.9381 36.4857 38.9381 36.7213 38.9381 36.898C39.1743 36.898 39.3515 36.9569 39.5287 37.1337C39.6468 36.7802 39.7649 36.4268 39.9421 36.0734C39.9421 36.3679 39.883 36.4857 40.1783 36.6624C40.1192 36.8391 40.0011 37.0158 39.883 37.1926C39.4105 37.2515 39.0562 37.1337 38.7609 37.6049C38.6428 37.3104 38.5247 37.0158 38.4066 36.7802L38.3475 37.1337C38.4656 37.546 38.5247 37.9583 38.5837 38.4295C38.1113 38.6062 38.1113 38.6062 38.1113 39.1363C38.7018 39.1363 38.7609 38.9007 39.0562 38.4884C39.4696 38.4884 39.5877 38.7829 39.883 39.0185L39.9421 38.4295C40.0011 38.6651 40.1192 38.9007 40.2373 39.1363C40.4736 38.8418 40.7098 38.6062 40.887 38.2528C41.3004 38.6062 40.7689 38.6651 40.5326 38.8418C40.6507 39.0185 40.7689 39.1952 40.887 39.313C40.5917 39.313 40.2964 39.313 40.0602 39.4308C39.7058 39.313 39.6468 39.3719 39.5877 38.9596C39.2334 39.0185 38.879 39.0185 38.5247 39.1363C38.2294 39.313 38.0522 39.6075 37.816 39.8431C37.5207 40.1376 37.6388 40.55 37.6388 40.9034C37.816 41.0801 37.9932 41.3157 38.1703 41.4335C38.5247 41.4924 38.879 41.3746 39.2334 41.3157C39.2924 41.3746 39.3515 41.4924 39.4105 41.6102C38.6428 42.2581 37.9341 42.6115 36.9301 42.906C37.1073 42.6704 37.2254 42.4348 37.1663 42.2581C36.7529 41.9636 36.2805 41.9047 35.8671 41.7869ZM33.8591 42.6115C32.678 42.0225 31.7331 41.139 31.1425 39.9609C30.67 38.9007 30.4929 37.6049 30.8472 36.5446C30.9063 36.7802 30.9063 37.0158 31.0244 37.2515C31.0834 37.4282 31.1425 37.546 31.2015 37.6638C31.1425 37.9583 31.0244 38.2528 31.0244 38.5473C31.0244 38.9007 31.2606 39.2541 31.3787 39.5486C31.4968 39.6075 31.6149 39.6664 31.7331 39.7253C31.8512 40.0198 31.9693 40.1965 32.0874 40.4911C32.3827 40.6678 32.7961 40.7267 33.0914 40.9034C33.3867 41.139 33.682 41.3746 33.9772 41.5513C33.8591 41.6691 33.8001 41.7869 33.682 41.9047C33.8001 42.1403 33.8001 42.3759 33.8591 42.6115Z" fill="black"/>
<path d="M36.9307 33.0685C36.4582 32.5973 35.3362 32.7151 35.0999 33.4219C35.159 33.5986 35.218 33.7164 35.2771 33.8931C35.0999 34.0698 34.9228 34.1876 34.6865 34.3055C34.9818 34.4233 35.218 34.4822 35.4543 34.6L35.159 34.1876C35.6314 34.3055 35.7496 33.8342 36.1039 33.6575C36.4582 33.5397 36.6945 33.3041 36.9307 33.0685ZM77.9166 26.8249C76.1449 24.999 73.4282 24.4689 71.0069 24.999C69.5304 25.3524 68.2312 26.177 67.2272 27.355C65.3373 29.8289 65.3964 33.5986 67.5225 35.9547C70.121 38.9587 75.4952 38.9587 78.0938 35.8958C80.3379 33.4219 80.2789 29.2399 77.9166 26.8249ZM76.7354 35.3068C74.6684 37.4861 70.7706 37.4272 68.7036 35.2479C67.05 33.5397 66.8138 30.8302 67.8768 28.7687C68.5855 27.4139 69.8848 26.4715 71.4203 26.177C73.4282 25.7058 75.6724 26.3537 76.9717 28.003C78.8025 30.0645 78.6843 33.4219 76.7354 35.3068ZM92.2085 26.7071C91.0864 25.4113 89.3737 24.999 87.7792 25.0579C86.1846 25.1168 84.531 24.999 82.9365 24.999V31.7138C82.8774 33.8931 82.8774 36.0725 82.8774 38.3108H84.3539V34.1287C85.7122 34.0698 87.1296 34.1287 88.4879 34.1287C90.1415 34.0698 91.7951 33.4219 92.681 31.8905C93.4487 30.359 93.3896 28.1208 92.2085 26.7071ZM91.4998 30.948C91.0864 32.0083 90.0234 32.5384 88.9603 32.774C87.4839 33.0096 85.7712 32.8329 84.2948 32.8329V26.3537H87.9564C89.0785 26.4126 90.2005 26.6482 91.0273 27.4728C91.7951 28.3564 91.9132 29.8289 91.4998 30.948ZM97.4646 37.0149V32.185C99.7088 32.185 102.012 32.1261 104.256 32.2439V31.007C102.012 30.948 99.7088 30.948 97.4056 30.948V26.3537H105.024V25.1168C102.012 25.1168 99.0001 25.1168 95.9882 25.0579V31.7727C95.9291 33.952 95.9291 36.1314 95.9291 38.3697H105.26V37.1327C102.721 37.0738 100.063 36.956 97.4646 37.0149ZM118.312 25.1168C118.312 28.6509 118.253 32.185 118.253 35.7191C115.477 32.185 112.642 28.592 109.867 25.0579H108.686V31.7727C108.626 33.952 108.626 36.1314 108.626 38.3697H110.103V27.7085C112.879 31.2426 115.713 34.8356 118.489 38.3697H119.67C119.67 33.952 119.729 29.5933 119.729 25.1757H118.312V25.1168ZM126.403 35.778V32.774H132.486V30.359H126.403V27.5317H133.312V25.0579C130.005 25.0579 126.698 25.0579 123.332 24.999C123.332 25.9414 123.332 26.8838 123.273 27.8263V38.3108H133.49V35.8369H126.403V35.778ZM142.998 25.1168C141.935 25.1168 140.99 25.0579 139.927 25.1168C137.919 29.4755 135.97 33.8931 134.021 38.2519C135.084 38.3108 136.147 38.3108 137.151 38.3108C137.506 37.3683 137.978 36.4259 138.332 35.4835H144.415C144.77 36.4259 145.183 37.3683 145.537 38.3108H148.786C146.955 33.8931 144.947 29.4755 142.998 25.1168ZM139.395 33.1274C140.045 31.4782 140.754 29.8878 141.403 28.2386L141.462 28.2975C142.171 29.8878 142.821 31.5371 143.47 33.1274C142.112 33.1274 140.754 33.1274 139.395 33.1274ZM161.07 32.2439C161.837 30.8891 161.837 29.0632 161.129 27.6495C160.479 26.3537 159.239 25.588 157.88 25.2935C156.581 24.9401 155.4 25.1168 154.042 25.0579C152.742 25.0579 151.502 24.999 150.144 24.999C150.144 25.9414 150.144 26.8838 150.085 27.8263V38.2519H153.156V34.5411C154.101 34.5411 155.046 34.4822 155.931 34.6C156.758 35.8369 157.585 37.0738 158.471 38.2519C159.593 38.193 160.656 38.2519 161.778 38.2519C160.833 36.8382 159.829 35.4246 158.884 34.0109C159.829 33.6575 160.597 33.1274 161.07 32.2439ZM157.703 31.6549C157.172 32.0672 156.463 32.1261 155.872 32.1261H153.333V27.5906C154.632 27.6495 156.227 27.4139 157.408 27.8852C158.766 28.5331 158.943 30.7713 157.703 31.6549ZM166.621 27.8263V38.4875H169.692C169.633 34.8945 169.751 31.3604 169.751 27.8263H173.944C173.885 27.0016 174.003 26.177 174.003 25.3524H166.798C165.381 25.2935 163.904 25.2935 162.487 25.2935V27.8263C163.845 27.8263 165.204 27.7674 166.621 27.8263ZM184.515 33.0685V38.4875H187.586C187.586 37.3683 187.586 36.2492 187.645 35.1301V25.2935H184.574V30.4768H178.669C178.61 28.7687 178.669 27.0016 178.669 25.2935C177.606 25.2346 176.661 25.2346 175.598 25.2346C175.598 26.177 175.598 27.1194 175.539 28.0619V38.4875H178.61V33.0685H184.515ZM67.2272 42.1394V52.8595H67.5815V47.9118C69.5304 47.8529 71.5384 47.9707 73.4282 47.8529L73.5463 47.5583C71.5384 47.4994 69.5304 47.5583 67.5225 47.5583V42.4339H73.8416C74.0188 42.4928 74.196 42.375 74.196 42.1394C71.8927 42.0805 69.5895 42.1394 67.2272 42.1394ZM81.8144 42.2572C80.5151 42.5517 79.2749 43.2585 78.5072 44.3777C77.0898 46.3803 77.267 49.3254 78.8615 51.0925C80.9876 53.4485 85.0035 53.4485 87.1296 51.0925C88.9013 49.2076 88.9603 46.0858 87.3658 44.142C86.1256 42.4928 83.9405 41.8449 81.8144 42.2572ZM87.3067 50.5034C85.5941 52.8595 81.8144 53.2129 79.6293 51.3281C77.9756 49.9144 77.5032 47.4994 78.33 45.4968C78.9796 43.9064 80.4561 42.7873 82.1687 42.4928C83.7633 42.2572 85.3578 42.6106 86.598 43.6708C88.5469 45.3201 88.8422 48.4419 87.3067 50.5034ZM101.126 42.1394V48.5008C101.126 49.561 100.89 50.5623 100.299 51.387C99.7088 52.0938 98.8229 52.5061 97.9371 52.565C96.874 52.6239 95.9291 52.6239 94.9842 51.976C93.9802 51.3281 93.5668 50.0322 93.5078 48.8542V42.1983H93.1534V48.5597C93.1534 49.8555 93.4487 51.1514 94.4527 52.0349C95.5748 53.0951 97.5237 53.2129 98.882 52.7417C99.7679 52.4472 100.477 51.7993 100.89 50.9158C101.244 50.0911 101.362 49.2665 101.362 48.4419V42.1983H101.067V42.1394H101.126ZM115.654 42.1394V52.2705C113.115 49.0309 110.516 45.6735 107.977 42.4339C107.8 42.2572 107.682 42.1394 107.445 42.0216V52.8006H107.8V42.7284C110.339 45.968 112.938 49.2665 115.477 52.565C115.654 52.7417 115.772 52.8595 116.009 52.9773V42.1394H115.654ZM125.989 42.1394H121.796V52.8595H125.989C127.584 52.8595 129.178 52.2705 130.242 51.1514C132.072 49.2076 132.072 45.9091 130.301 43.9653C129.238 42.7284 127.643 42.1394 125.989 42.1394ZM129.769 51.2103C128.765 52.1527 127.289 52.565 125.989 52.565H122.092V42.4928H125.989C127.348 42.4339 128.883 42.964 129.887 43.9064C131.836 45.7913 131.777 49.3843 129.769 51.2103ZM139.277 42.375C137.683 45.8502 136.029 49.3843 134.435 52.8595C134.966 52.9184 134.907 52.4472 135.143 52.0938C135.498 51.2692 135.911 50.4445 136.265 49.6199H142.821C143.293 50.6801 143.766 51.7404 144.297 52.8006L144.652 52.8595C142.998 49.2665 141.285 45.6735 139.691 42.0805C139.514 42.0805 139.336 42.1983 139.277 42.375ZM136.443 49.3843C137.506 47.146 138.51 44.9078 139.573 42.6106C140.636 44.8489 141.699 47.0871 142.703 49.3843H136.443ZM153.746 42.1394C151.207 42.1983 148.667 42.1394 146.128 42.1983L146.246 42.4928C147.545 42.5517 148.904 42.4928 150.203 42.5517V52.9773H150.557V42.4928H153.924C154.219 42.4928 154.455 42.4339 154.691 42.3161C154.396 42.0805 154.101 42.1394 153.746 42.1394ZM158.353 52.8595H158.707V42.1394H158.353V52.8595ZM167.92 42.2572C166.621 42.5517 165.381 43.2585 164.613 44.3777C163.196 46.3803 163.373 49.3254 164.967 51.0925C167.093 53.4485 171.168 53.4485 173.235 51.0925C175.007 49.2076 175.066 46.0858 173.472 44.142C172.172 42.4928 169.987 41.8449 167.92 42.2572ZM173.353 50.5034C171.641 52.8595 167.861 53.2129 165.676 51.3281C164.022 49.9144 163.55 47.4994 164.377 45.4968C165.026 43.9064 166.503 42.7873 168.215 42.4928C169.81 42.2572 171.405 42.6106 172.645 43.6708C174.594 45.3201 174.889 48.4419 173.353 50.5034ZM187.645 42.1394V52.2705C185.106 49.0309 182.507 45.7324 179.968 42.4339C179.791 42.2572 179.673 42.1394 179.436 42.0216V52.8006H179.791V42.7284C182.33 45.968 184.929 49.2665 187.468 52.565C187.645 52.7417 187.763 52.8595 188 52.9773V42.1394H187.645Z" fill="black"/>
</svg>
