<svg width="1024" height="213" viewBox="0 0 1024 213" fill="none" xmlns="http://www.w3.org/2000/svg">
<g clip-path="url(#clip0_301_18)">
<path d="M180.637 65.0708C176.22 62.3689 170.479 62.3689 165.62 65.0708L131.171 85.7851L107.763 99.2946L73.3144 120.01C68.8979 122.711 63.1566 122.711 58.2984 120.01L30.9158 103.798C26.4993 101.096 23.4077 96.1429 23.4077 90.7387V58.7664C23.4077 53.3626 26.0576 48.4091 30.9158 45.7072L57.8567 29.9461C62.2732 27.2442 68.0149 27.2442 72.8729 29.9461L99.8141 45.7072C104.231 48.4091 107.322 53.3626 107.322 58.7664V79.4809L130.73 65.5211V44.8065C130.73 39.4027 128.08 34.4493 123.222 31.7474L73.3144 2.02643C68.8979 -0.675476 63.1566 -0.675476 58.2984 2.02643L7.50811 31.7474C2.64993 34.4493 0 39.4027 0 44.8065V104.699C0 110.102 2.64993 115.056 7.50811 117.758L58.2984 147.479C62.715 150.181 68.4564 150.181 73.3144 147.479L107.763 127.214L131.171 113.255L165.62 92.9905C170.037 90.2887 175.778 90.2887 180.637 92.9905L207.577 108.752C211.994 111.454 215.086 116.407 215.086 121.811V153.783C215.086 159.187 212.435 164.14 207.577 166.842L180.637 183.054C176.22 185.756 170.479 185.756 165.62 183.054L138.68 167.293C134.263 164.591 131.171 159.638 131.171 154.233V133.519L107.763 147.479V168.193C107.763 173.597 110.414 178.551 115.272 181.252L166.062 210.974C170.479 213.676 176.22 213.676 181.078 210.974L231.868 181.252C236.285 178.551 239.377 173.597 239.377 168.193V108.301C239.377 102.898 236.727 97.9441 231.868 95.2423L180.637 65.0708Z" fill="#7950DD"/>
<path d="M332.637 193.821V144.098C338.023 150.888 347.797 154.682 359.168 154.682C388.093 154.682 407.642 134.114 407.642 102.763C407.642 71.4122 389.688 50.8444 361.562 50.8444C348.595 50.8444 338.621 55.6369 332.637 63.4247V52.4419H304.909V193.821H332.637ZM355.777 130.719C340.816 130.719 331.041 119.537 331.041 102.763C331.041 85.7897 340.816 74.6072 355.777 74.6072C370.339 74.6072 380.313 85.7897 380.313 102.763C380.313 119.537 370.339 130.719 355.777 130.719Z" fill="black"/>
<path d="M470.604 154.682C501.524 154.682 523.666 132.716 523.666 102.763C523.666 72.8101 501.524 50.8444 470.604 50.8444C439.685 50.8444 417.542 72.8101 417.542 102.763C417.542 132.716 439.685 154.682 470.604 154.682ZM470.604 130.719C455.643 130.719 445.47 119.337 445.47 102.763C445.47 85.9894 455.643 74.6072 470.604 74.6072C485.565 74.6072 495.739 85.9894 495.739 102.763C495.739 119.337 485.565 130.719 470.604 130.719Z" fill="black"/>
<path d="M568.156 153.084V8.71033H540.429V153.084H568.156Z" fill="black"/>
<path d="M651.506 52.4419L630.561 117.34L609.416 52.4419H581.09L617.595 152.286L602.833 193.821H629.364L643.527 152.685L680.029 52.4419H651.506Z" fill="black"/>
<path d="M757.906 62.4262C752.321 55.4372 742.347 50.8444 730.178 50.8444C700.855 50.8444 683.101 71.4122 683.101 102.763C683.101 134.114 700.855 154.682 730.577 154.682C742.347 154.682 752.919 150.289 758.106 142.9V156.08C758.106 165.465 751.922 172.055 743.544 172.055H697.264V193.821H747.932C770.673 193.821 785.833 180.042 785.833 159.075V52.4419H757.906V62.4262ZM734.966 130.719C720.204 130.719 710.43 119.737 710.43 102.763C710.43 85.7897 720.204 74.6072 734.966 74.6072C749.927 74.6072 759.702 85.7897 759.702 102.763C759.702 119.737 749.927 130.719 734.966 130.719Z" fill="black"/>
<path d="M855.732 154.682C886.651 154.682 908.794 132.716 908.794 102.763C908.794 72.8101 886.651 50.8444 855.732 50.8444C824.812 50.8444 802.67 72.8101 802.67 102.763C802.67 132.716 824.812 154.682 855.732 154.682ZM855.732 130.719C840.771 130.719 830.597 119.337 830.597 102.763C830.597 85.9894 840.771 74.6072 855.732 74.6072C870.693 74.6072 880.866 85.9894 880.866 102.763C880.866 119.337 870.693 130.719 855.732 130.719Z" fill="black"/>
<path d="M951.888 153.084V97.9707C951.888 84.991 960.465 75.6057 972.634 75.6057C984.204 75.6057 991.983 84.3919 991.983 96.5729V153.084H1019.91V90.3826C1019.91 67.2188 1005.15 50.8444 982.408 50.8444C968.644 50.8444 957.473 56.6353 951.888 66.42V52.4419H923.96V153.084H951.888Z" fill="black"/>
</g>
<defs>
<clipPath id="clip0_301_18">
<rect width="1024" height="213" fill="white"/>
</clipPath>
</defs>
</svg>
