<?xml version="1.0" standalone="no"?>
<!DOCTYPE svg PUBLIC "-//W3C//DTD SVG 20010904//EN"
 "http://www.w3.org/TR/2001/REC-SVG-20010904/DTD/svg10.dtd">
<svg version="1.0" xmlns="http://www.w3.org/2000/svg"
 width="400.000000pt" height="400.000000pt" viewBox="0 0 400.000000 400.000000"
 preserveAspectRatio="xMidYMid meet">
<metadata>
Created by potrace 1.14, written by Peter Selinger 2001-2017
</metadata>
<g transform="translate(0.000000,400.000000) scale(0.100000,-0.100000)"
fill="#000000" stroke="none">
<path d="M289 3619 c-5 -3 34 -68 86 -145 53 -76 148 -215 211 -309 63 -93
157 -231 208 -305 50 -74 145 -214 211 -310 65 -96 156 -230 202 -296 45 -67
83 -124 83 -126 0 -3 -176 -5 -390 -5 -215 0 -393 -2 -396 -6 -3 -3 -7 -60 -8
-126 l-1 -121 393 -2 393 -3 -150 -220 c-82 -121 -193 -283 -245 -360 -52 -77
-210 -308 -350 -514 -141 -206 -254 -377 -251 -379 3 -3 841 -5 963 -3 21 1
22 4 22 116 l0 115 -270 0 c-148 0 -270 3 -270 6 0 3 143 218 317 477 434 646
455 677 462 677 3 0 116 -165 251 -366 135 -201 247 -367 250 -369 3 -2 115
163 250 366 135 203 247 369 250 369 3 0 51 -69 107 -153 103 -154 379 -564
569 -845 57 -85 104 -156 104 -158 0 -2 -121 -4 -270 -4 l-270 0 0 -115 0
-115 43 -1 c171 -2 919 0 922 3 2 2 -38 66 -90 143 -51 77 -245 370 -430 650
-186 281 -364 549 -396 598 l-59 87 394 0 393 0 1 125 c1 111 -1 125 -16 126
-9 0 -189 1 -400 1 -277 1 -380 4 -373 12 4 6 42 63 83 126 41 63 235 356 429
650 195 294 379 572 409 616 29 45 53 85 52 89 -2 9 -3409 13 -3423 4z m2999
-237 c-1 -4 -145 -218 -318 -475 -173 -257 -322 -478 -330 -490 -52 -83 -125
-187 -130 -187 -3 0 -114 164 -248 365 -134 201 -247 365 -251 365 -5 0 -24
-24 -42 -52 -19 -29 -131 -196 -248 -371 l-213 -317 -82 120 c-44 67 -97 145
-116 175 -36 55 -414 617 -527 783 l-63 92 1286 0 c707 0 1284 -4 1282 -8z
m-1136 -1037 c74 -110 137 -205 141 -211 5 -8 -74 -11 -283 -11 -203 0 -287 4
-283 11 4 6 45 67 91 136 47 69 103 152 126 185 44 66 68 97 71 93 2 -2 63
-93 137 -203z m2 -679 c-78 -118 -141 -202 -148 -199 -6 3 -71 95 -144 204
l-132 199 280 0 280 0 -136 -204z"/>
</g>
</svg>
