<svg width="350" height="350" viewBox="0 0 350 350" fill="none" xmlns="http://www.w3.org/2000/svg">
<path fill-rule="evenodd" clip-rule="evenodd" d="M345.607 145.01C342.794 147.823 338.978 149.403 335 149.403L247.137 149.403C308.977 184.551 343.324 257.792 348.178 333.773C348.696 341.877 342.67 348.922 334.583 349.666L333.209 334.729C332.889 329.719 332.438 324.736 331.856 319.79C322.542 240.523 279.855 170.693 208.997 149.403C202.047 147.314 194.826 145.693 187.339 144.576C183.111 143.945 178.798 143.474 174.402 143.171C173.707 143.123 173.009 143.08 172.31 143.04C172.958 140.101 173.656 137.219 174.402 134.403L335 134.403C335 130.169 334.892 125.986 334.463 121.866C334.377 121.042 334.282 120.221 334.18 119.403C326.799 60.5389 276.461 15 215.597 15H157.687L157.686 15.0012C157.487 15.0004 157.289 15 157.09 15C78.6155 15 15 78.6155 15 157.09C15 210.616 44.5973 257.23 88.319 281.458C92.8964 283.994 97.6286 286.285 102.498 288.313L110.216 233.806C110.216 233.806 111.148 259.393 118.724 280.713C120.664 286.175 123.041 291.357 125.95 295.756C135.971 297.997 146.392 299.179 157.09 299.179C165.517 299.179 173.773 298.445 181.797 297.039C186.238 296.26 190.609 295.275 194.898 294.094C195.973 293.798 197.043 293.489 198.108 293.169C194.51 289.186 191.263 284.882 188.347 280.31C173.394 256.874 167.129 226.415 166.822 196.271C173.866 236.279 188.817 264.809 207.001 285.135C208.968 287.334 210.972 289.436 213.009 291.447C248.971 326.952 294.883 333.819 318.184 334.844C324.125 335.105 328.596 334.987 331.058 334.866C332.459 334.798 333.209 334.729 333.209 334.729C334.583 349.666 334.575 349.667 334.566 349.667L334.545 349.669L334.494 349.674C334.455 349.677 334.408 349.681 334.353 349.686C334.241 349.695 334.097 349.707 333.919 349.72C333.563 349.746 333.076 349.779 332.465 349.813C331.243 349.881 329.523 349.953 327.368 349.984C323.062 350.047 316.994 349.946 309.671 349.318C295.079 348.067 275.204 344.694 254.299 336.115C238.072 329.456 221.441 319.729 206.278 305.749C205.102 306.513 203.81 307.118 202.431 307.532C188.057 311.859 172.831 314.179 157.09 314.179C145.284 314.179 133.766 312.874 122.677 310.395C118.889 309.548 115.577 307.266 113.437 304.029C112.678 302.88 111.952 301.699 111.258 300.49C110.83 300.798 110.384 301.084 109.922 301.347C105.888 303.645 101.017 303.945 96.7308 302.16C39.9569 278.515 0 222.485 0 157.09C0 70.3312 70.3313 0 157.09 0C157.242 0 157.394 0.000216484 157.546 0.000650406C157.593 0.000217438 157.64 0 157.687 0H215.597C285.052 0 342.325 52.6794 349.382 120.309C349.89 125.18 350 129.953 350 134.403C350 138.381 348.42 142.197 345.607 145.01ZM166.821 196.206L166.813 196.221C166.816 196.238 166.819 196.255 166.822 196.271C166.822 196.256 166.822 196.241 166.821 196.225C166.821 196.223 166.821 196.221 166.821 196.219C166.821 196.215 166.821 196.21 166.821 196.206Z" fill="white"/>
<path d="M147.537 130.821H217.047L329.627 130.821C329.627 68.833 279.223 18.582 217.047 18.582L164.143 18.582L147.537 130.821Z" fill="white"/>
<path d="M63.4708 71.9119C68.5665 62.7907 73.7127 53.411 81.4252 46.3624C98.6151 30.6522 129.985 19.3408 146.342 28.7273C154.047 33.1491 157.088 66.9363 153.562 93.2049L141.901 156.309C139.495 169.332 136.682 183.162 126.699 191.864C112.603 204.154 90.7336 208.776 73.66 201.471C49.918 191.312 47.536 149.921 47.5361 121.265C47.5362 103.851 56.465 84.4523 63.4708 71.9119Z" fill="white"/>
<path d="M117.976 82.4627C126.054 82.4627 132.603 75.914 132.603 67.8358C132.603 65.0743 131.837 62.4915 130.507 60.2879C129.821 62.0833 128.082 63.3582 126.045 63.3582C123.407 63.3582 121.269 61.2199 121.269 58.5821C121.269 56.7762 122.271 55.2045 123.749 54.3926C121.978 53.6309 120.026 53.209 117.976 53.209C109.898 53.209 103.349 59.7576 103.349 67.8358C103.349 75.914 109.898 82.4627 117.976 82.4627Z" fill="black"/>
<path fill-rule="evenodd" clip-rule="evenodd" d="M147.836 129.627L162.702 15.1088C160.84 15.0365 158.969 15 157.09 15C78.6157 15 15 78.6157 15 157.09C15 216.22 51.119 266.914 102.498 288.313L110.216 233.806C110.216 233.806 111.687 274.182 125.95 295.756C135.972 297.997 146.392 299.179 157.09 299.179C171.351 299.179 185.121 297.078 198.108 293.169C161.638 252.797 161.211 179.382 175.73 129.627H147.836ZM129.555 30.3889C143.086 27.29 153.345 39.5215 151.347 53.2584L136.589 154.718C131.738 188.071 99.5778 216.737 74.9538 193.724C59.5292 179.309 49.031 153.57 58.1934 107.698C68.9644 53.7734 104.65 36.0925 129.555 30.3889Z" fill="black"/>
<path fill-rule="evenodd" clip-rule="evenodd" d="M154.597 121.866L267.537 121.866H321.866C319.887 104.935 313.914 89.2136 304.97 75.6504C285.857 46.6648 252.914 27.5373 215.597 27.5373L168.51 27.5373L154.597 121.866ZM140.075 134.403L157.687 15L215.597 15C277.307 15 328.197 61.8139 334.463 121.866C334.893 125.986 335 130.169 335 134.403L140.075 134.403Z" fill="black"/>
<path d="M324.552 130.821C314.43 129.408 264.872 135.533 267.537 121.866C271.601 101.024 285.932 83.8224 304.97 75.6504C324.124 67.4291 330.143 131.601 324.552 130.821Z" fill="black"/>
<path d="M333.209 334.729C333.209 334.729 162.463 350.439 162.463 142.761C266.292 142.761 326.719 233.145 333.209 334.729Z" fill="black"/>
</svg>
