<svg width="60" height="16" viewBox="0 0 60 16" fill="none" xmlns="http://www.w3.org/2000/svg">
<g clip-path="url(#clip0_28_831)">
<path fill-rule="evenodd" clip-rule="evenodd" d="M15.8703 7.93038C15.8703 12.3102 12.3114 15.8608 7.9213 15.8608C3.75623 15.8608 0.339348 12.6649 0 8.59699H10.5067V7.26375H0C0.339348 3.19588 3.75623 0 7.9213 0C12.3114 0 15.8703 3.55054 15.8703 7.93038ZM45.3402 14.4239C48.0946 14.4239 49.901 12.9404 49.901 10.706C49.901 8.63255 48.5417 7.64944 46.4849 7.30982L44.6605 7.00594C43.2655 6.77358 42.3353 6.16582 42.3353 4.82521C42.3353 3.46674 43.3728 2.43 45.3402 2.43C47.2539 2.43 48.2377 3.39523 48.345 4.77159H49.7221C49.6148 2.94837 48.2198 1.32176 45.3581 1.32176C42.5321 1.32176 40.9761 2.91261 40.9761 4.87885C40.9761 6.97019 42.389 7.93544 44.3207 8.25718L46.1629 8.54318C47.701 8.8113 48.5596 9.43692 48.5596 10.7597C48.5596 12.3148 47.2897 13.3157 45.3581 13.3157C43.3549 13.3157 42.1028 12.3505 41.9955 10.706H40.6363C40.7436 12.851 42.389 14.4239 45.3402 14.4239ZM25.0347 14.1737H20.0269V1.58988H24.8559C26.9843 1.58988 28.4688 2.84111 28.4688 4.8431C28.4688 6.29096 27.646 7.25619 26.3225 7.57793V7.63157C27.8964 7.93544 28.8623 9.00793 28.8623 10.6882C28.8623 12.851 27.2704 14.1737 25.0347 14.1737ZM24.677 7.1132C26.1974 7.1132 27.1274 6.29096 27.1274 5.00396V4.82521C27.1274 3.53823 26.1974 2.73387 24.677 2.73387H21.3682V7.1132H24.677ZM24.838 13.0298C26.5014 13.0298 27.5208 12.1181 27.5208 10.7239V10.5452C27.5208 9.0973 26.4835 8.22143 24.8201 8.22143H21.3682V13.0298H24.838ZM39.6946 14.1737H38.2638L37.1906 10.7597H32.1826L31.1096 14.1737H29.7502L33.8818 1.58988H35.5095L39.6946 14.1737ZM34.7582 2.96624H34.6509L32.5403 9.63354H36.8508L34.7582 2.96624ZM51.9157 14.1737V1.58988H60V2.75174H53.2572V7.07745H59.4635V8.22143H53.2572V13.0119H60V14.1737H51.9157Z" fill="white"/>
</g>
<defs>
<clipPath id="clip0_28_831">
<rect width="60" height="16" fill="white"/>
</clipPath>
</defs>
</svg>
