<svg width="120" height="20" viewBox="0 0 120 20" fill="none" xmlns="http://www.w3.org/2000/svg">
<path d="M36.1199 17L30.6858 10.78V17H28.3828V3.09998H30.6858V9.43998L36.1401 3.09998H39.0289L32.9281 10.06L39.1299 17H36.1199Z" fill="white"/>
<path d="M42.2573 2.19998V17H39.9544V2.19998H42.2573Z" fill="white"/>
<path d="M45.2405 4.51998C44.823 4.51998 44.4729 4.37998 44.19 4.09998C43.9072 3.81998 43.7658 3.47331 43.7658 3.05998C43.7658 2.64664 43.9072 2.29998 44.19 2.01998C44.4729 1.73998 44.823 1.59998 45.2405 1.59998C45.6445 1.59998 45.988 1.73998 46.2708 2.01998C46.5536 2.29998 46.695 2.64664 46.695 3.05998C46.695 3.47331 46.5536 3.81998 46.2708 4.09998C45.988 4.37998 45.6445 4.51998 45.2405 4.51998ZM46.3718 5.97998V17H44.0688V5.97998H46.3718Z" fill="white"/>
<path d="M61.6576 5.79998C62.533 5.79998 63.3141 5.97998 64.0009 6.33997C64.7012 6.69998 65.2467 7.23331 65.6372 7.93998C66.0413 8.64664 66.2433 9.49998 66.2433 10.5V17H63.9605V10.84C63.9605 9.85331 63.7114 9.09998 63.2131 8.57998C62.7148 8.04664 62.0347 7.77998 61.1727 7.77998C60.3108 7.77998 59.624 8.04664 59.1122 8.57998C58.6139 9.09998 58.3647 9.85331 58.3647 10.84V17H56.082V10.84C56.082 9.85331 55.8328 9.09998 55.3345 8.57998C54.8362 8.04664 54.1561 7.77998 53.2942 7.77998C52.4323 7.77998 51.7454 8.04664 51.2337 8.57998C50.7354 9.09998 50.4862 9.85331 50.4862 10.84V17H48.1833V5.97998H50.4862V7.23998C50.8633 6.78664 51.3414 6.43331 51.9205 6.17998C52.4996 5.92664 53.1191 5.79998 53.779 5.79998C54.6679 5.79998 55.4625 5.98664 56.1628 6.35998C56.8631 6.73331 57.4018 7.27331 57.7789 7.97998C58.1156 7.31331 58.6408 6.78664 59.3546 6.39998C60.0684 5.99998 60.836 5.79998 61.6576 5.79998Z" fill="white"/>
<path d="M67.194 11.44C67.194 10.3333 67.4229 9.35331 67.8808 8.49998C68.3522 7.64664 68.9852 6.98664 69.7798 6.51998C70.5878 6.03998 71.4767 5.79998 72.4463 5.79998C73.3217 5.79998 74.0826 5.97331 74.7291 6.31998C75.389 6.65331 75.9142 7.07331 76.3048 7.57998V5.97998H78.6279V17H76.3048V15.36C75.9142 15.88 75.3823 16.3133 74.7089 16.66C74.0355 17.0066 73.2679 17.18 72.4059 17.18C71.4497 17.18 70.5743 16.94 69.7798 16.46C68.9852 15.9666 68.3522 15.2866 67.8808 14.42C67.4229 13.54 67.194 12.5466 67.194 11.44ZM76.3048 11.48C76.3048 10.72 76.1432 10.06 75.82 9.49998C75.5102 8.93998 75.0994 8.51331 74.5877 8.21998C74.0759 7.92664 73.5237 7.77998 72.9312 7.77998C72.3386 7.77998 71.7864 7.92664 71.2747 8.21998C70.7629 8.49998 70.3454 8.91998 70.0222 9.47998C69.7124 10.0266 69.5575 10.68 69.5575 11.44C69.5575 12.2 69.7124 12.8666 70.0222 13.44C70.3454 14.0133 70.7629 14.4533 71.2747 14.76C71.7999 15.0533 72.3521 15.2 72.9312 15.2C73.5237 15.2 74.0759 15.0533 74.5877 14.76C75.0994 14.4666 75.5102 14.04 75.82 13.48C76.1432 12.9066 76.3048 12.24 76.3048 11.48Z" fill="white"/>
<path d="M85.0264 3.09998C86.5213 3.09998 87.8277 3.38664 88.9455 3.95998C90.0767 4.51998 90.9454 5.33331 91.5514 6.39998C92.1709 7.45331 92.4807 8.68664 92.4807 10.1C92.4807 11.5133 92.1709 12.74 91.5514 13.78C90.9454 14.82 90.0767 15.62 88.9455 16.18C87.8277 16.7266 86.5213 17 85.0264 17H80.4407V3.09998H85.0264ZM85.0264 15.14C86.6694 15.14 87.9287 14.7 88.804 13.82C89.6794 12.94 90.1171 11.7 90.1171 10.1C90.1171 8.48664 89.6794 7.22664 88.804 6.31998C87.9287 5.41331 86.6694 4.95998 85.0264 4.95998H82.7436V15.14H85.0264Z" fill="white"/>
<path d="M102.015 14.16H96.1368L95.1267 17H92.7228L97.7529 3.07998H100.419L105.45 17H103.025L102.015 14.16ZM101.369 12.3L99.0862 5.83998L96.7833 12.3H101.369Z" fill="white"/>
<path d="M112.828 17.14C111.522 17.14 110.317 16.84 109.212 16.24C108.122 15.6266 107.253 14.78 106.606 13.7C105.973 12.6066 105.657 11.38 105.657 10.02C105.657 8.65998 105.973 7.43998 106.606 6.35998C107.253 5.27998 108.122 4.43998 109.212 3.83998C110.317 3.22664 111.522 2.91998 112.828 2.91998C114.148 2.91998 115.354 3.22664 116.445 3.83998C117.549 4.43998 118.418 5.27998 119.05 6.35998C119.683 7.43998 120 8.65998 120 10.02C120 11.38 119.683 12.6066 119.05 13.7C118.418 14.78 117.549 15.6266 116.445 16.24C115.354 16.84 114.148 17.14 112.828 17.14ZM112.828 15.16C113.758 15.16 114.586 14.9533 115.313 14.54C116.04 14.1133 116.606 13.5133 117.01 12.74C117.428 11.9533 117.636 11.0466 117.636 10.02C117.636 8.99331 117.428 8.09331 117.01 7.31998C116.606 6.54664 116.04 5.95331 115.313 5.53998C114.586 5.12664 113.758 4.91998 112.828 4.91998C111.899 4.91998 111.071 5.12664 110.344 5.53998C109.616 5.95331 109.044 6.54664 108.627 7.31998C108.223 8.09331 108.021 8.99331 108.021 10.02C108.021 11.0466 108.223 11.9533 108.627 12.74C109.044 13.5133 109.616 14.1133 110.344 14.54C111.071 14.9533 111.899 15.16 112.828 15.16Z" fill="white"/>
<path d="M19.8117 10.7646V9.23535H14.9474L21.0094 0H0L6.23591 9.23535H1.35156V10.7646H6.23591L0 20H6.03518V18.5833H2.68305L7.50717 11.3539L10.5783 15.9748L13.616 11.3737L18.4267 18.5766H15.0946V19.9934H21.0027L14.9474 10.7646H19.8117ZM2.68973 1.41675H18.4267L13.616 8.62628L10.5783 4.02516L7.50717 8.64614L2.68973 1.41675ZM10.5783 6.54088L12.3714 9.22873H8.77175L10.5783 6.54088ZM10.5783 13.4525L8.77175 10.7646H12.3714L10.5783 13.4525Z" fill="#22C55E"/>
</svg>
