<svg width="42" height="40" viewBox="0 0 42 40" fill="none" xmlns="http://www.w3.org/2000/svg">
	<g opacity="0.6">
		<path fill-rule="evenodd" clip-rule="evenodd" d="M12.2589 32.6733C10.1845 29.6651 8.89588 25.4999 8.89588 20.8908C8.89588 16.2817 10.1845 12.1164 12.2589 9.1083C14.3339 6.09922 17.1824 4.26287 20.3067 4.26287C23.431 4.26287 26.2795 6.09922 28.3545 9.1083C30.4289 12.1164 31.7175 16.2817 31.7175 20.8908C31.7175 25.4999 30.4289 29.6651 28.3545 32.6733C26.2795 35.6824 23.431 37.5187 20.3067 37.5187C17.1824 37.5187 14.3339 35.6824 12.2589 32.6733ZM11.9734 32.8632C14.0907 35.9335 17.0338 37.8574 20.3067 37.8574C23.5796 37.8574 26.5227 35.9335 28.64 32.8632C30.7579 29.7919 32.0622 25.5585 32.0622 20.8908C32.0622 16.223 30.7579 11.9896 28.64 8.91837C26.5227 5.84805 23.5796 3.92421 20.3067 3.92421C17.0338 3.92421 14.0907 5.84805 11.9734 8.91837C9.85553 11.9896 8.55115 16.223 8.55115 20.8908C8.55115 25.5585 9.85553 29.7919 11.9734 32.8632Z" fill="#001AFF" />
		<path fill-rule="evenodd" clip-rule="evenodd" d="M24.3128 33.8063C20.711 33.1495 16.8436 31.1401 13.5721 27.9263C10.3005 24.7125 8.25504 20.9133 7.58638 17.3751C6.91755 13.836 7.62763 10.5762 9.83764 8.40521C12.0477 6.2342 15.3659 5.53664 18.9686 6.19367C22.5704 6.85053 26.4378 8.85992 29.7094 12.0737C32.9809 15.2875 35.0264 19.0867 35.695 22.6249C36.3639 26.164 35.6538 29.4238 33.4438 31.5948C31.2338 33.7658 27.9155 34.4634 24.3128 33.8063ZM24.2499 34.1393C27.9276 34.81 31.374 34.1069 33.6876 31.8343C36.0011 29.5616 36.7168 26.1759 36.034 22.5631C35.3511 18.9494 33.2676 15.0902 29.9531 11.8343C26.6387 8.57831 22.7102 6.53159 19.0315 5.86071C15.3538 5.19 11.9074 5.89307 9.59388 8.16574C7.28037 10.4384 6.56467 13.8241 7.24743 17.4369C7.93036 21.0506 10.0138 24.9098 13.3283 28.1657C16.6427 31.4217 20.5713 33.4684 24.2499 34.1393Z" fill="#001AFF" />
		<path fill-rule="evenodd" clip-rule="evenodd" d="M9.04851 12.9818C11.9232 10.9456 15.9032 9.681 20.3072 9.681C24.7112 9.681 28.6912 10.9456 31.5659 12.9818C34.4408 15.0181 36.1996 17.8165 36.1996 20.8905C36.1996 23.9645 34.4408 26.7628 31.5659 28.7991C28.6912 30.8353 24.7112 32.0999 20.3072 32.0999C15.9032 32.0999 11.9232 30.8353 9.04851 28.7991C6.17359 26.7628 4.41481 23.9644 4.41481 20.8905C4.41481 17.8165 6.17359 15.0181 9.04851 12.9818ZM8.84689 12.7071C5.90751 14.7891 4.07007 17.6801 4.07007 20.8905C4.07007 24.1008 5.90751 26.9918 8.84689 29.0738C11.7865 31.156 15.8389 32.4386 20.3072 32.4386C24.7755 32.4386 28.8279 31.156 31.7675 29.0738C34.7069 26.9918 36.5443 24.1008 36.5443 20.8905C36.5443 17.6801 34.7069 14.7891 31.7675 12.7071C28.8279 10.6249 24.7755 9.34235 20.3072 9.34235C15.8389 9.34235 11.7865 10.6249 8.84689 12.7071Z" fill="#001AFF" />
		<path fill-rule="evenodd" clip-rule="evenodd" d="M6.2825 22.6465C6.93733 19.1221 8.96356 15.342 12.2137 12.1492C15.4638 8.95645 19.3119 6.96598 22.8995 6.3227C26.4881 5.67927 29.7981 6.3849 32.0085 8.55627C34.2189 10.7276 34.9372 13.9793 34.2822 17.5045C33.6274 21.0289 31.6011 24.809 28.351 28.0018C25.1009 31.1946 21.2528 33.185 17.6652 33.8283C14.0766 34.4717 10.7666 33.7661 8.55619 31.5947C6.34582 29.4234 5.62751 26.1717 6.2825 22.6465ZM5.94336 22.5857C5.2746 26.1851 5.99929 29.5619 8.31243 31.8342C10.6256 34.1065 14.063 34.8184 17.7271 34.1615C21.3919 33.5043 25.3014 31.4765 28.5948 28.2412C31.8881 25.006 33.9524 21.1655 34.6213 17.5653C35.2901 13.9659 34.5654 10.5891 32.2523 8.3168C29.9391 6.04448 26.5017 5.33258 22.8376 5.98955C19.1728 6.64666 15.2633 8.67451 11.9699 11.9098C8.67656 15.145 6.61228 18.9855 5.94336 22.5857Z" fill="#001AFF" />
		<path d="M23.761 20.9104C23.761 22.4323 22.5051 23.666 20.9559 23.666C19.4067 23.666 18.1508 22.4323 18.1508 20.9104C18.1508 19.3885 19.4067 18.1547 20.9559 18.1547C22.5051 18.1547 23.761 19.3885 23.761 20.9104Z" fill="black" />
		<path d="M21.6177 4.0732C21.6177 4.78393 21.0312 5.36009 20.3077 5.36009C19.5842 5.36009 18.9977 4.78393 18.9977 4.0732C18.9977 3.36247 19.5842 2.78632 20.3077 2.78632C21.0312 2.78632 21.6177 3.36247 21.6177 4.0732Z" fill="black" />
		<path d="M7.13844 26.0173C7.13844 26.728 6.55193 27.3042 5.82844 27.3042C5.10494 27.3042 4.51843 26.728 4.51843 26.0173C4.51843 25.3066 5.10494 24.7304 5.82844 24.7304C6.55193 24.7304 7.13844 25.3066 7.13844 26.0173Z" fill="black" />
		<path d="M14.6533 34.2135C14.6533 34.9242 14.0668 35.5004 13.3433 35.5004C12.6198 35.5004 12.0333 34.9242 12.0333 34.2135C12.0333 33.5028 12.6198 32.9266 13.3433 32.9266C14.0668 32.9266 14.6533 33.5028 14.6533 34.2135Z" fill="black" />
		<path d="M8.44874 14.3006C8.44874 15.0113 7.86223 15.5874 7.13874 15.5874C6.41524 15.5874 5.82874 15.0113 5.82874 14.3006C5.82874 13.5898 6.41524 13.0137 7.13874 13.0137C7.86223 13.0137 8.44874 13.5898 8.44874 14.3006Z" fill="black" />
		<path d="M32.8566 24.2568C32.8566 24.9675 32.2701 25.5437 31.5466 25.5437C30.8231 25.5437 30.2366 24.9675 30.2366 24.2568C30.2366 23.5461 30.8231 22.9699 31.5466 22.9699C32.2701 22.9699 32.8566 23.5461 32.8566 24.2568Z" fill="black" />
		<path d="M31.0631 11.7266C31.0631 12.4374 30.4766 13.0135 29.7531 13.0135C29.0296 13.0135 28.4431 12.4374 28.4431 11.7266C28.4431 11.0159 29.0296 10.4398 29.7531 10.4398C30.4766 10.4398 31.0631 11.0159 31.0631 11.7266Z" fill="black" />
	</g>
</svg>
